<svg xmlns="http://www.w3.org/2000/svg" viewBox="0 0 500 500"><g id="freepik--background-simple--inject-64"><path d="M95.44,150.47c9.38,47.76,58.37,96.4,111,128.22,136,82.88,255.12-49.42,220.26-98.78C399.75,130,325.55,141.79,292.52,121.65,106.82,7.69,86.9,110.48,95.44,150.47Z" style="fill:#FF81AE"></path><path d="M95.44,150.47c9.38,47.76,58.37,96.4,111,128.22,136,82.88,255.12-49.42,220.26-98.78C399.75,130,325.55,141.79,292.52,121.65,106.82,7.69,86.9,110.48,95.44,150.47Z" style="fill:#fff;opacity:0.9"></path></g><g id="freepik--Shadow--inject-64"><ellipse id="freepik--path--inject-64" cx="250" cy="416.24" rx="193.89" ry="11.32" style="fill:#f5f5f5"></ellipse></g><g id="freepik--Flower--inject-64"><path d="M151.26,355.22H110.64c-5.2,13.83-7.21,30.79-3.41,45.76,1.45,5.74,5.69,9.63,10.45,9.63h26.53c4.77,0,9-3.89,10.46-9.63C158.47,386,156.46,369.05,151.26,355.22Z" style="fill:#FF81AE"></path><ellipse cx="130.95" cy="355.22" rx="20.31" ry="2.28" style="fill:#FF81AE"></ellipse><ellipse cx="130.95" cy="355.22" rx="20.31" ry="2.28" style="opacity:0.30000000000000004"></ellipse><path d="M152.85,285.75c2.82,18.53-7.71,27.78-22.24,30s-27.58-3.5-30.4-22,6.68-35.36,21.22-37.57S150,267.21,152.85,285.75Z" style="fill:#FF81AE"></path><path d="M152.85,285.75c2.82,18.53-7.71,27.78-22.24,30s-27.58-3.5-30.4-22,6.68-35.36,21.22-37.57S150,267.21,152.85,285.75Z" style="fill:#fff;opacity:0.5"></path><path d="M129.31,362.8c-.25-11.24,3.95-46.22-2.89-75.94" style="fill:none;stroke:#FF81AE;stroke-miterlimit:10"></path><path d="M109.36,315.22c-2.21-14.3-13.08-37.23-36.19-31.59C53.5,288.42,106.08,309.51,109.36,315.22Z" style="fill:#FF81AE"></path><path d="M109.36,315.22c-2.21-14.3-13.08-37.23-36.19-31.59C53.5,288.42,106.08,309.51,109.36,315.22Z" style="fill:#fff;opacity:0.30000000000000004"></path><path d="M125.24,358.31c.8-9.79-12.47-45.05-29-59.4" style="fill:none;stroke:#FF81AE;stroke-miterlimit:10"></path><path d="M134.68,331.31c-1.67-10.72.89-29.58,18.69-30.8C168.52,299.46,135.72,326.48,134.68,331.31Z" style="fill:#FF81AE"></path><path d="M134.68,331.31c-1.67-10.72.89-29.58,18.69-30.8C168.52,299.46,135.72,326.48,134.68,331.31Z" style="fill:#fff;opacity:0.30000000000000004"></path><path d="M133.11,365.72c-2.8-6.82-1.32-35,7.21-49" style="fill:none;stroke:#FF81AE;stroke-miterlimit:10"></path><path d="M109.36,332.84c-2.21-8.44-13.08-22-36.19-18.67C29.12,320.52,124.32,348.25,109.36,332.84Z" style="fill:#FF81AE"></path><path d="M109.36,332.84c-2.21-8.44-13.08-22-36.19-18.67C29.12,320.52,124.32,348.25,109.36,332.84Z" style="fill:#fff;opacity:0.5"></path><path d="M125.24,358.31c.8-5.79-12.47-26.62-29-35.1" style="fill:none;stroke:#FF81AE;stroke-miterlimit:10"></path><path d="M136.27,350.43c-1.74-5.34-.58-16.45,13.07-22.69C175.38,315.84,133.54,364,136.27,350.43Z" style="fill:#FF81AE"></path><path d="M136.27,350.43c-1.74-5.34-.58-16.45,13.07-22.69C175.38,315.84,133.54,364,136.27,350.43Z" style="fill:#fff;opacity:0.5"></path><path d="M136.54,369.73C134.09,366.88,134,351,140,340.67" style="fill:none;stroke:#FF81AE;stroke-miterlimit:10"></path></g><g id="freepik--Ribbon--inject-64"><path d="M356.68,227.91a.38.38,0,0,0,.09-.13.43.43,0,0,0-.28-.55c-13.93-4.82-20.65-18.12-21.15-29.15a.46.46,0,0,0-.49-.41.43.43,0,0,0-.45.43c.51,11.31,7.43,25,21.76,29.92A.49.49,0,0,0,356.68,227.91Z" style="fill:#FF81AE"></path><path d="M349.19,226.34c.13-1.44-2.55-4.19-2.55-4.19s-3.16,2.2-3.29,3.64a3,3,0,0,0,5.84.55Z" style="fill:#FF81AE"></path><path d="M341.72,206.62c-1.61-.17-4.66,2.13-4.66,2.13s2.45,2.91,4.06,3.09a2.64,2.64,0,1,0,.6-5.22Z" style="fill:#FF81AE"></path><path d="M224.59,329.93v-.07c-.07-11.07-7.71-19.15-20.43-21.63a.53.53,0,0,0-.58.34.4.4,0,0,0,.31.51c12.32,2.4,19.71,10.2,19.79,20.87a.4.4,0,0,0,.46.39A.52.52,0,0,0,224.59,329.93Z" style="fill:#FF81AE"></path><path d="M222.52,324.62c.67-1.41-.78-4.73-.78-4.73s-3.74,1.51-4.4,2.92a2.44,2.44,0,0,0,1.38,3.45A3.16,3.16,0,0,0,222.52,324.62Z" style="fill:#FF81AE"></path><path d="M271.32,145.86A25.29,25.29,0,0,0,278,131.68c1.78-11.87-3.21-27.7-18.37-34.41a.48.48,0,0,0-.63.18.42.42,0,0,0,.22.57c14.74,6.53,19.58,22,17.84,33.53-1.64,11-8.65,18.36-18.73,19.78a.41.41,0,0,0-.38.48.47.47,0,0,0,.54.35A21.94,21.94,0,0,0,271.32,145.86Z" style="fill:#FF81AE"></path><path d="M266.43,99.51c-.29,1.42,2.11,4.37,2.11,4.37s3.37-1.93,3.66-3.35a2.73,2.73,0,0,0-2.38-3.09A2.85,2.85,0,0,0,266.43,99.51Z" style="fill:#FF81AE"></path><path d="M271.87,119.71c1.58.31,4.87-1.73,4.87-1.73s-2.15-3.09-3.74-3.4a2.87,2.87,0,0,0-3.44,2A2.69,2.69,0,0,0,271.87,119.71Z" style="fill:#FF81AE"></path><path d="M263.76,149.13c1.59.31,4.87-1.73,4.87-1.73s-2.15-3.1-3.74-3.4a2.88,2.88,0,0,0-3.44,2A2.71,2.71,0,0,0,263.76,149.13Z" style="fill:#FF81AE"></path><path d="M239.17,367.12a35.1,35.1,0,0,1-12.84-8.7,22.9,22.9,0,0,1-3.83-5.94,29,29,0,0,1-2.18-7.26,42.51,42.51,0,0,1-.56-8.33,68.35,68.35,0,0,1,.9-8.95,124.32,124.32,0,0,1,4.73-18.59c2-6.27,4.52-12.52,7.17-18.77s5.5-12.51,8.41-18.78c5.81-12.55,12.05-25.09,17.91-37.92a345.14,345.14,0,0,0,15.83-39.58,151.25,151.25,0,0,0,5.19-21.08A94.93,94.93,0,0,0,281.16,151c-.13-1.88-.35-3.81-.63-5.66s-.6-3.66-1-5.48a102.48,102.48,0,0,0-2.8-10.83,107,107,0,0,0-9-20.74A103,103,0,0,0,254,89.48a85.63,85.63,0,0,0-18.86-15.59A56.76,56.76,0,0,0,223,68.37a40.4,40.4,0,0,0-7.23-1.52,29.93,29.93,0,0,0-8.11.13,23.72,23.72,0,0,0-8.2,2.89,20.8,20.8,0,0,0-6.18,5.5,27.69,27.69,0,0,0-5,12.65A51.75,51.75,0,0,0,188,99.78a69.38,69.38,0,0,0,1.83,11.32,84.51,84.51,0,0,0,8.5,21.33,99.59,99.59,0,0,0,14,18.86,113.38,113.38,0,0,0,18.23,15.54c13.25,9.2,28.3,15.84,43.73,20.62a239.23,239.23,0,0,0,23.49,5.87c3.95.76,7.92,1.46,11.89,2.05l5.68.84c1.76.28,3.52.57,5.25.9a85.12,85.12,0,0,1,19.22,5.68c5.65,2.54,10,5.81,12.15,9.34a14.7,14.7,0,0,1,2.09,5.74,21,21,0,0,1-.22,6.88,48.11,48.11,0,0,1-6.33,15.58,108.6,108.6,0,0,1-11.21,15.36c-2.14,2.46-4.39,4.88-6.71,7.23-1.16,1.17-2.34,2.33-3.53,3.45l-1.8,1.65-.89.78-.43.37-.2.18-.14.1,23.72,20.16.63-.66.53-.58,1-1.13,1.93-2.22c1.26-1.48,2.5-3,3.7-4.47q3.61-4.5,6.92-9.2a133.84,133.84,0,0,0,11.88-20,88,88,0,0,0,4.42-11.19,59.92,59.92,0,0,0,2.56-12.4,42.77,42.77,0,0,0-.89-13.73,36.76,36.76,0,0,0-6.34-13.52,44.73,44.73,0,0,0-10.95-10.23,63.6,63.6,0,0,0-12.52-6.4A114.09,114.09,0,0,0,324,177.73c-2.06-.3-4.11-.53-6.15-.76l-5.78-.54c-3.66-.33-7.3-.8-10.93-1.3a191.08,191.08,0,0,1-21.4-4.28,134.2,134.2,0,0,1-39-16.56c-11.59-7.5-21.38-17.17-27.94-28.41a68.56,68.56,0,0,1-7.37-17.66A57.61,57.61,0,0,1,203.93,99a39.49,39.49,0,0,1,.17-8.86,19.65,19.65,0,0,1,.89-3.8,10.36,10.36,0,0,1,1.47-2.84,6.13,6.13,0,0,1,1.85-1.68A7,7,0,0,1,210.7,81a17.38,17.38,0,0,1,7.39.85,40.29,40.29,0,0,1,8.45,3.88,67.9,67.9,0,0,1,15.17,12.7,88.2,88.2,0,0,1,11.54,16.17,90.2,90.2,0,0,1,7.64,18,88.17,88.17,0,0,1,2.27,9.44c.28,1.58.54,3.18.75,4.77s.35,3.08.42,4.65a77.49,77.49,0,0,1-1.52,18.91,139.11,139.11,0,0,1-5.26,19c-2.18,6.3-4.77,12.54-7.55,18.74s-5.79,12.37-8.92,18.52c-6.28,12.29-13,24.52-19.69,36.94a423.49,423.49,0,0,0-18.71,38.58,146.65,146.65,0,0,0-7,21.16,89.56,89.56,0,0,0-2,11.5,67.06,67.06,0,0,0-.27,12.32,51.66,51.66,0,0,0,2.65,13,49.51,49.51,0,0,0,6.53,12.64,56.34,56.34,0,0,0,10,10.66,79.42,79.42,0,0,0,11.81,8Z" style="fill:#FF81AE"></path><path d="M239.17,367.12a35.1,35.1,0,0,1-12.84-8.7,22.9,22.9,0,0,1-3.83-5.94,29,29,0,0,1-2.18-7.26,42.51,42.51,0,0,1-.56-8.33,68.35,68.35,0,0,1,.9-8.95,124.32,124.32,0,0,1,4.73-18.59c2-6.27,4.52-12.52,7.17-18.77s5.5-12.51,8.41-18.78c5.81-12.55,12.05-25.09,17.91-37.92a345.14,345.14,0,0,0,15.83-39.58,151.25,151.25,0,0,0,5.19-21.08A94.93,94.93,0,0,0,281.16,151c-.13-1.88-.35-3.81-.63-5.66s-.6-3.66-1-5.48a102.48,102.48,0,0,0-2.8-10.83,107,107,0,0,0-9-20.74A103,103,0,0,0,254,89.48a85.63,85.63,0,0,0-18.86-15.59A56.76,56.76,0,0,0,223,68.37a40.4,40.4,0,0,0-7.23-1.52,29.93,29.93,0,0,0-8.11.13,23.72,23.72,0,0,0-8.2,2.89,20.8,20.8,0,0,0-6.18,5.5,27.69,27.69,0,0,0-5,12.65A51.75,51.75,0,0,0,188,99.78a69.38,69.38,0,0,0,1.83,11.32,84.51,84.51,0,0,0,8.5,21.33,99.59,99.59,0,0,0,14,18.86,113.38,113.38,0,0,0,18.23,15.54c13.25,9.2,28.3,15.84,43.73,20.62a239.23,239.23,0,0,0,23.49,5.87c3.95.76,7.92,1.46,11.89,2.05l5.68.84c1.76.28,3.52.57,5.25.9a85.12,85.12,0,0,1,19.22,5.68c5.65,2.54,10,5.81,12.15,9.34a14.7,14.7,0,0,1,2.09,5.74,21,21,0,0,1-.22,6.88,48.11,48.11,0,0,1-6.33,15.58,108.6,108.6,0,0,1-11.21,15.36c-2.14,2.46-4.39,4.88-6.71,7.23-1.16,1.17-2.34,2.33-3.53,3.45l-1.8,1.65-.89.78-.43.37-.2.18-.14.1,23.72,20.16.63-.66.53-.58,1-1.13,1.93-2.22c1.26-1.48,2.5-3,3.7-4.47q3.61-4.5,6.92-9.2a133.84,133.84,0,0,0,11.88-20,88,88,0,0,0,4.42-11.19,59.92,59.92,0,0,0,2.56-12.4,42.77,42.77,0,0,0-.89-13.73,36.76,36.76,0,0,0-6.34-13.52,44.73,44.73,0,0,0-10.95-10.23,63.6,63.6,0,0,0-12.52-6.4A114.09,114.09,0,0,0,324,177.73c-2.06-.3-4.11-.53-6.15-.76l-5.78-.54c-3.66-.33-7.3-.8-10.93-1.3a191.08,191.08,0,0,1-21.4-4.28,134.2,134.2,0,0,1-39-16.56c-11.59-7.5-21.38-17.17-27.94-28.41a68.56,68.56,0,0,1-7.37-17.66A57.61,57.61,0,0,1,203.93,99a39.49,39.49,0,0,1,.17-8.86,19.65,19.65,0,0,1,.89-3.8,10.36,10.36,0,0,1,1.47-2.84,6.13,6.13,0,0,1,1.85-1.68A7,7,0,0,1,210.7,81a17.38,17.38,0,0,1,7.39.85,40.29,40.29,0,0,1,8.45,3.88,67.9,67.9,0,0,1,15.17,12.7,88.2,88.2,0,0,1,11.54,16.17,90.2,90.2,0,0,1,7.64,18,88.17,88.17,0,0,1,2.27,9.44c.28,1.58.54,3.18.75,4.77s.35,3.08.42,4.65a77.49,77.49,0,0,1-1.52,18.91,139.11,139.11,0,0,1-5.26,19c-2.18,6.3-4.77,12.54-7.55,18.74s-5.79,12.37-8.92,18.52c-6.28,12.29-13,24.52-19.69,36.94a423.49,423.49,0,0,0-18.71,38.58,146.65,146.65,0,0,0-7,21.16,89.56,89.56,0,0,0-2,11.5,67.06,67.06,0,0,0-.27,12.32,51.66,51.66,0,0,0,2.65,13,49.51,49.51,0,0,0,6.53,12.64,56.34,56.34,0,0,0,10,10.66,79.42,79.42,0,0,0,11.81,8Z" style="fill:#263238;opacity:0.5"></path><path d="M224.2,335.76a27.51,27.51,0,0,0,.39-5.92.4.4,0,0,0-.47-.37.49.49,0,0,0-.44.49c.46,10.27-5.75,21.14-11.23,30.73-7.09,12.4-13.21,23.11-2.59,28.37a.5.5,0,0,0,.63-.19.4.4,0,0,0-.15-.59c-9.87-4.89-4.23-14.75,2.91-27.23C217.75,353.16,222.75,344.41,224.2,335.76Z" style="fill:#FF81AE"></path><path d="M214.73,388.92c-1.12-1-5-.52-5-.52s-.13,3.72,1,4.67a3,3,0,0,0,4.05-.34A2.59,2.59,0,0,0,214.73,388.92Z" style="fill:#FF81AE"></path><path d="M209.77,379.22c-1.41-.55-5.11,1-5.11,1s1.11,3.46,2.51,4a3.16,3.16,0,0,0,3.85-1.52A2.45,2.45,0,0,0,209.77,379.22Z" style="fill:#FF81AE"></path><path d="M217.62,362c-.81-1.21-4.65-1.67-4.65-1.67s-1.07,3.66-.26,4.86a2.84,2.84,0,0,0,3.92.59A2.74,2.74,0,0,0,217.62,362Z" style="fill:#FF81AE"></path><path d="M229.11,333.34c-1.18-.88-5.1-.19-5.1-.19s.13,3.69,1.32,4.57a3.05,3.05,0,0,0,4-.6A2.55,2.55,0,0,0,229.11,333.34Z" style="fill:#FF81AE"></path><path d="M204.56,372.51c1.57-.35,3.83-3.58,3.83-3.58s-3.08-2-4.65-1.68a3,3,0,0,0-2.42,3.27A2.56,2.56,0,0,0,204.56,372.51Z" style="fill:#FF81AE"></path><path d="M215.44,350.67c1.58-.07,4.42-2.88,4.42-2.88s-2.55-2.59-4.13-2.53a3.13,3.13,0,0,0-3,2.82A2.49,2.49,0,0,0,215.44,350.67Z" style="fill:#FF81AE"></path><g style="opacity:0.2"><path d="M276.54,188.14a136.91,136.91,0,0,0,3.37-14.93c.12-.74.24-1.49.34-2.24q2.76.72,5.55,1.35l3.2,19.12C284.82,190.46,280.67,189.37,276.54,188.14Z"></path></g><path d="M190.37,80.43a23.9,23.9,0,0,1,2.88-5.05,20.91,20.91,0,0,1,6.17-5.51,22.87,22.87,0,0,1,5.85-2.39c5.27.11,20.32,12.52,28.88,23.72h0a60,60,0,0,0-7.61-5.43,39.2,39.2,0,0,0-8.46-3.89,17.31,17.31,0,0,0-7.37-.85,7.21,7.21,0,0,0-2.4.82,6,6,0,0,0-1.85,1.67A10.72,10.72,0,0,0,205,86.38a20.25,20.25,0,0,0-.88,3.8,39.48,39.48,0,0,0-.17,8.86,56.5,56.5,0,0,0,1.57,9.18q.44,1.75,1,3.48C195.71,98.38,191,87.45,190.37,80.43Z" style="opacity:0.2"></path><path d="M258.78,152a.37.37,0,0,0,.1-.35.47.47,0,0,0-.54-.35c-11.06,1.56-23-3-33.58-7-13.65-5.18-25.44-9.65-30.71.73a.42.42,0,0,0,.24.57.49.49,0,0,0,.62-.2c4.89-9.65,15.75-5.54,29.5-.32,10.67,4,22.77,8.63,34.09,7A.46.46,0,0,0,258.78,152Z" style="fill:#FF81AE"></path><path d="M194.4,149.56c1-1.13.36-4.72.36-4.72s-4,.29-5,1.42a2.47,2.47,0,0,0,.53,3.7A3.15,3.15,0,0,0,194.4,149.56Z" style="fill:#FF81AE"></path><path d="M204.66,143.92c.54-1.36-1.3-4.61-1.3-4.61s-3.69,1.4-4.23,2.76a2.63,2.63,0,0,0,1.8,3.39A3,3,0,0,0,204.66,143.92Z" style="fill:#FF81AE"></path><path d="M223.5,149.27c1.27-.87,1.63-4.47,1.63-4.47s-4-.59-5.27.29a2.44,2.44,0,0,0-.47,3.68A3.16,3.16,0,0,0,223.5,149.27Z" style="fill:#FF81AE"></path><path d="M254.91,156.72c.9-1.19,0-4.73,0-4.73s-4,.53-4.87,1.72a2.49,2.49,0,0,0,.8,3.66A3.13,3.13,0,0,0,254.91,156.72Z" style="fill:#FF81AE"></path><path d="M211.7,138.37c.44,1.41,4,3.14,4,3.14s2.07-3.07,1.63-4.47a3,3,0,0,0-3.62-1.88A2.55,2.55,0,0,0,211.7,138.37Z" style="fill:#FF81AE"></path><path d="M235.68,146c.14,1.44,3.28,3.76,3.28,3.76s2.7-2.64,2.57-4.09a2.91,2.91,0,0,0-3.16-2.46A2.68,2.68,0,0,0,235.68,146Z" style="fill:#FF81AE"></path></g><g id="freepik--Character--inject-64"><path d="M336.57,116.05c-.86.77-3.79,1.24-2.92-5.34,1.12-8.43-.87-20.77-8-19.87a24.54,24.54,0,0,0-15.94-5.57c-11.78.28-10.66,9.57-10.66,9.57-4.8,3.78-5.14,13.3,0,22.07,3.45,5.88-1.37,9-5.2,7.66,3,5.26,8.05,5.14,10.86,3.54,1.45,5.44,10.95,8.34,12.42,4.57,8.67,2.29,13.9.35,15.63-3.2-4,.21-6-4.15-4.38-9.46C333,121.44,336.77,120.4,336.57,116.05Z" style="fill:#263238"></path><path d="M205.71,332.09s-3.57-2.23-8.26,1.52-15.65,16.21-15.65,16.21l1,1.11s10.67-10.48,13-11.87c-5.41,5.65-8.83,16.44-3.8,21.87,1.79,1.92,6.66-10.39,11.36-16s6.37-7.56,6.37-7.56Z" style="fill:#263238"></path><path d="M214.25,333,205,331.78c-5.71,5.75-10.66,15.2-10.54,20.27a1.54,1.54,0,0,0,2.78.74C204,342.55,214.25,333,214.25,333Z" style="fill:#ffb573"></path><path d="M285.78,387.84s-3.17.52-3.11,6.51,1.95,22.5,1.95,22.5h1.51s-.18-16,.19-18.73c1.11,7.82,2.37,18.73,14.57,18.73,2.62,0-4.07-11.94-5.59-19.2s-2-9.81-2-9.81Z" style="fill:#263238"></path><path d="M296.36,376l-9.73,11.81c1,8.09,4.66,17.86,8.74,21.22a1.45,1.45,0,0,0,2.31-1.53C292.08,391.57,296.36,376,296.36,376Z" style="fill:#ffb573"></path><path d="M326.2,203.22s-8.44,59-12.36,90.53c-3.84,31.72-20.56,94.09-20.56,94.09h-7.5s-3.77-60.39,9.3-94.51c-13.38-61.3,1.31-95.7,1.31-95.7Z" style="fill:#ffb573"></path><path d="M318.16,201.74s-24.58,67.88-40.76,90.51c-5.54,7.74-46.83,27-68.4,46l-4-6.49s36.55-46.64,55.31-53.65c7.51-82.71,31.22-83.29,31.22-83.29Z" style="fill:#ffb573"></path><path d="M355.22,102.71h0a4.75,4.75,0,0,0-5.56,2.65A4.59,4.59,0,0,0,352,111.3l2.38,1.08h0s4.77,6.37,9.26,3.2c.4-2,.71-4.42-1.21-6.93l-2.54-3A8.85,8.85,0,0,0,355.22,102.71Z" style="fill:#ffb573"></path><path d="M334.46,139.35l.73.17.89.18,1.83.35c1.24.21,2.49.39,3.75.52a66.57,66.57,0,0,0,7.59.42,57.14,57.14,0,0,0,7.53-.51c1.24-.18,2.47-.39,3.69-.65.62-.12,1.22-.27,1.82-.42l.23-.06.11,0h0a1.25,1.25,0,0,0-.25.09,4.94,4.94,0,0,0-.89.49c-.12.09-.25.21-.35.3a3.07,3.07,0,0,0-.26.25,2.52,2.52,0,0,0-.64,1.09c0,.14.11-.27.16-.72s.08-1,.09-1.61c0-1.18,0-2.46-.15-3.76-.18-2.62-.51-5.32-.86-8-.74-5.42-1.57-11-2.41-16.42V111a3,3,0,0,1,5.68-1.52,158.34,158.34,0,0,1,5.38,16.24c.75,2.77,1.42,5.58,2,8.52.26,1.47.49,3,.63,4.58.06.82.11,1.66.1,2.59a12.94,12.94,0,0,1-.48,3.42,7.75,7.75,0,0,1-1.62,2.93c-.14.15-.29.3-.44.44a6.47,6.47,0,0,1-.56.45,5.63,5.63,0,0,1-1.35.75l-.37.15-.12,0-.14,0-.28.09c-.73.26-1.47.51-2.21.73-1.49.45-3,.84-4.51,1.14a58.1,58.1,0,0,1-9.16,1.16,61.15,61.15,0,0,1-9.18-.24c-1.52-.16-3-.38-4.56-.64-.76-.14-1.52-.28-2.29-.45l-1.16-.29c-.41-.11-.73-.19-1.29-.36a5.94,5.94,0,0,1,3-11.48Z" style="fill:#ffb573"></path><path d="M339.5,151.49c-1.45,8.69,4.71,14.56-4.2,19.78-1.7,7.42-4.49,20.75-8.77,32.56-2.92,2.87-20.23-.67-37.61-8,4.08-10,6-27.31,3.72-51.86a9.62,9.62,0,0,1,9.69-10.53c1.53,0,3.14.07,4.79.17a121.28,121.28,0,0,1,17.19,1.93c1.84.38,3.73.83,5.53,1.29A13,13,0,0,1,339.5,151.49Z" style="fill:#FF81AE"></path><path d="M323.74,135.47l-15.16-1.77s11.64,8.88,18.08,20.22C333.31,140.19,323.74,135.47,323.74,135.47Z" style="fill:#fff"></path><path d="M311,114.44c.46,5.65.4,15.91-3.88,19.16,0,0,12.8,6,19.23,17.33,4.85-11.56-2-15.4-2-15.4-6-2.16-5.33-6.72-3.77-10.9Z" style="fill:#ffb573"></path><path d="M326.53,162.86c-3.5,4.48-10.29,7-14.76,7.5C317.44,171.46,324.12,169.26,326.53,162.86Z" style="opacity:0.2"></path><path d="M288.38,194.21c-7,4.61-27.86,24.25-29.62,70.63,16.3,16.05,27.08,5.9,38.49,5.39s20.64,6.27,20.64,6.27,7.84-45.81,8.64-72.67C316.18,202.29,299.57,199.29,288.38,194.21Z" style="fill:#FF81AE"></path><path d="M288.38,194.21c-7,4.61-27.86,24.25-29.62,70.63,16.3,16.05,27.08,5.9,38.49,5.39s20.64,6.27,20.64,6.27,7.84-45.81,8.64-72.67C316.18,202.29,299.57,199.29,288.38,194.21Z" style="fill:#fff;opacity:0.3"></path><path d="M293.82,261.19c5.17-13.31,13.44-30.52,13.44-30.52a78.69,78.69,0,0,1-.33,9.19C305.74,243.92,293.82,261.19,293.82,261.19Z" style="opacity:0.1"></path><path d="M318.74,273.92a.3.3,0,0,1-.15-.05c-.1-.06-10.16-6.71-21.33-6.22a41.33,41.33,0,0,0-8.88,1.73c-8.69,2.34-17.67,4.76-29.81-7.2a.28.28,0,1,1,.39-.4c11.92,11.73,20.74,9.35,29.27,7.05a41.67,41.67,0,0,1,9-1.74c11.39-.51,21.57,6.25,21.67,6.31a.29.29,0,0,1,.08.4A.29.29,0,0,1,318.74,273.92Z" style="fill:#fff"></path><path d="M327.48,201.06a.47.47,0,0,1,.5.42,16,16,0,0,1-.61,3.85s.4,2.14-17-1.5c-14.77-3.1-21.68-7.31-23.41-8.5a.49.49,0,0,1-.08-.74,10.36,10.36,0,0,1,2.84-2.15.5.5,0,0,1,.46,0c2,1.14,10,4.64,21.47,6.77C321.57,201.09,326.18,201.11,327.48,201.06Z" style="fill:#263238"></path><path d="M314.88,118.6l5.65,6a17.48,17.48,0,0,0-.87,3c-2.32-.61-5.26-3.55-5.24-6.05A8.62,8.62,0,0,1,314.88,118.6Z" style="opacity:0.2"></path><path d="M303.53,107.1c3,8.82,4.05,12.61,9.74,16,8.56,5.11,18.52-.42,18.19-9.94-.29-8.57-5.1-21.55-14.68-22.79C307.35,89.17,300.56,98.28,303.53,107.1Z" style="fill:#ffb573"></path><path d="M323.25,114.39a7.7,7.7,0,0,0,1.44-.21.25.25,0,1,0-.12-.49,6.8,6.8,0,0,1-6-1.32.25.25,0,1,0-.35.36A7,7,0,0,0,323.25,114.39Z" style="fill:#263238"></path><path d="M317.34,106c.19.73.74,1.22,1.22,1.09s.7-.83.5-1.56-.74-1.21-1.22-1.08S317.14,105.24,317.34,106Z" style="fill:#263238"></path><path d="M326.35,103.66c.2.74.75,1.22,1.22,1.09s.71-.82.51-1.55-.75-1.22-1.22-1.09S326.15,102.93,326.35,103.66Z" style="fill:#263238"></path><path d="M326.66,102.21l1.61-1S327.74,102.84,326.66,102.21Z" style="fill:#263238"></path><path d="M323.74,105.57a20.23,20.23,0,0,0,3.87,4,3.25,3.25,0,0,1-2.47,1.19Z" style="fill:#ed893e"></path><path d="M302,114.17a6,6,0,0,0,4.39,2.21c2.14,0,2.54-2.44,1.38-4.51-1.05-1.86-3.42-4.11-5.3-3.13S300.58,112.46,302,114.17Z" style="fill:#7f3e3b"></path><path d="M301.41,96.11c9.61-1.72,9.82,8.85,8.7,11.27,2.51,1.12,4.91,6,3.06,9.41,2.25,4.46,6.09,2.58,6.09,2.58s-5.21,8.54-12.45,7.41S296.49,97.6,301.41,96.11Z" style="fill:#263238"></path><path d="M300.64,95.92c10,8.18,18.92-5,23.82-2.42C317.79,87.07,308,88.14,300.64,95.92Z" style="fill:#263238"></path><path d="M314.61,102.7a.45.45,0,0,0,.26-.23,3.52,3.52,0,0,1,2.45-2.07.46.46,0,0,0,.38-.51.45.45,0,0,0-.51-.37,4.4,4.4,0,0,0-3.13,2.58.45.45,0,0,0,.22.59A.42.42,0,0,0,314.61,102.7Z" style="fill:#263238"></path><path d="M328.55,97.85a.46.46,0,0,0,.28-.17.45.45,0,0,0-.09-.63,4.39,4.39,0,0,0-4-.75.44.44,0,1,0,.3.83,3.52,3.52,0,0,1,3.15.64A.46.46,0,0,0,328.55,97.85Z" style="fill:#263238"></path><path d="M317.64,104.51l1.62-1S318.73,105.15,317.64,104.51Z" style="fill:#263238"></path><path d="M317.65,159.7,315.86,156a2.35,2.35,0,0,0-2.9-1.19l-.78.27a10.47,10.47,0,0,0-4.58,3.2l-3.43,4.16c-1,1.8-.89,2.67.06,4.49l1,.75c4.56-.07,9.46-3.75,9.46-3.75l2-1.18A2.35,2.35,0,0,0,317.65,159.7Z" style="fill:#ffb573"></path><path d="M304.65,144.64c-3.51,3.27-7.13,6.79-10.43,10.29-1.66,1.75-3.23,3.55-4.65,5.32a31,31,0,0,0-1.89,2.62,14.45,14.45,0,0,0-1.17,2.14c-.09.22-.1.33-.13.11a.36.36,0,0,0,0-.1v0l0-.13a1.31,1.31,0,0,0-.06-.27,4.21,4.21,0,0,0-.48-1.09,3.27,3.27,0,0,0-1.17-1.11c-.52-.22-.34-.06-.09,0a6.89,6.89,0,0,0,1.19.19,43.1,43.1,0,0,0,6.78-.22c4.82-.46,9.86-1.2,14.82-1.91h.08a3,3,0,0,1,1.61,5.65,95.73,95.73,0,0,1-14.94,5.25,42,42,0,0,1-8.42,1.38,17,17,0,0,1-2.63-.07,9.58,9.58,0,0,1-3.73-1.12,7.2,7.2,0,0,1-2.56-2.39,6.94,6.94,0,0,1-.85-2c0-.17-.08-.34-.11-.51l0-.25,0-.14-.06-.58A11.65,11.65,0,0,1,276,162a20.68,20.68,0,0,1,2-4.81,40.76,40.76,0,0,1,2.35-3.75,73.09,73.09,0,0,1,5.1-6.47c1.78-2,3.6-4,5.48-5.81s3.75-3.66,5.84-5.45a5.94,5.94,0,0,1,7.92,8.86Z" style="fill:#ffb573"></path></g></svg>