<svg xmlns="http://www.w3.org/2000/svg" xmlns:xlink="http://www.w3.org/1999/xlink" viewBox="0 0 500 500"><defs><clipPath id="freepik--clip-path--inject-43"><path d="M161.24,229.23a4.93,4.93,0,0,1,2.78-.84,4.65,4.65,0,0,1,2.82.66v-.76l-.74-1.15a3.57,3.57,0,0,0-2.14-.49,3.73,3.73,0,0,0-2.1.63l-.63,1.07Z" style="fill:#ff5652"></path></clipPath><clipPath id="freepik--clip-path-2--inject-43"><path d="M166.1,227.14s1.24,1.42-1.06,4.42c-2.51,3.28-4.44,5.4-6,5.6l1.7,2s2.31-.49,5.66-5.91C168.73,229.42,166.1,227.14,166.1,227.14Z" style="fill:#ff5652"></path></clipPath></defs><g id="freepik--background-simple--inject-43"><path d="M212,207.08c-7.35-17.83-25.17-30.28-44.21-33.34s-30,2.61-46.07,13.31S93.18,213.2,83.8,230c-11,19.83-18.14,42.15-18.22,64.85s7.21,45.72,22.12,62.83c19,21.78,82,37.71,138.21-1.83,6.37-4.48,15.55-3.54,23.19-2.07,19.8,3.83,65.51,18.46,85.52,16,63.87-7.72,86.23-74.9,92.56-104.53,4.93-23,8.84-46.65,6.6-70.11s-11.23-47-28.66-62.88S361,109.86,339.6,119.7c-33.28,15.3-96,83.13-99.86,87.38s-9,7.64-14.65,8.08A13,13,0,0,1,212,207.08Z" style="fill:#FF81AE"></path><path d="M212,207.08c-7.35-17.83-25.17-30.28-44.21-33.34s-30,2.61-46.07,13.31S93.18,213.2,83.8,230c-11,19.83-18.14,42.15-18.22,64.85s7.21,45.72,22.12,62.83c19,21.78,82,37.71,138.21-1.83,6.37-4.48,15.55-3.54,23.19-2.07,19.8,3.83,65.51,18.46,85.52,16,63.87-7.72,86.23-74.9,92.56-104.53,4.93-23,8.84-46.65,6.6-70.11s-11.23-47-28.66-62.88S361,109.86,339.6,119.7c-33.28,15.3-96,83.13-99.86,87.38s-9,7.64-14.65,8.08A13,13,0,0,1,212,207.08Z" style="fill:#fff;opacity:0.9"></path></g><g id="freepik--Shadow--inject-43"><ellipse id="freepik--path--inject-43" cx="250" cy="409.39" rx="193.89" ry="11.32" style="fill:#f5f5f5"></ellipse></g><g id="freepik--Zoom--inject-43"><rect x="325.06" y="145.51" width="34.7" height="1.25" transform="translate(-29.02 120.74) rotate(-19.2)" style="fill:#FF81AE"></rect><path d="M417.2,135.46a38.16,38.16,0,0,1-76.26,2v-.06c0-.63,0-1.26,0-1.9,0-.28,0-.55,0-.81a38,38,0,0,1,11.94-26.93,38.8,38.8,0,0,1,7.77-5.69c.54-.28,1.08-.57,1.63-.83a38.16,38.16,0,0,1,54.95,34.26Z" style="fill:#fff"></path><path d="M392.38,140.58a4,4,0,0,1-.1.69,1.63,1.63,0,0,1-1.57,1.29h-.29c-.24,16.76-10.47,23.54-11.94,24.45a20.35,20.35,0,0,1-12.36,3,4.7,4.7,0,0,0-2.4.41,38.19,38.19,0,0,1-22.78-33v-.06l0-2.71a38,38,0,0,1,11.94-26.93,38.8,38.8,0,0,1,7.77-5.69c.54-.28,1.08-.57,1.63-.83a59,59,0,0,0,5.4,5.33,9.82,9.82,0,0,1,7.86,8.34c7.14,6.21,11.67,14.86,14.69,23.83a5.75,5.75,0,0,1,.94.23A1.68,1.68,0,0,1,392.38,140.58Z" style="fill:#ff8b7b"></path><path d="M390.36,140.72a4,4,0,0,1-.1.62,1.32,1.32,0,0,1-.19.46,1.09,1.09,0,0,1-.21.27,1.61,1.61,0,0,1-.82.44h0a.85.85,0,0,1-.23,0h-.29c0,.1,0,.2,0,.3,0,.58,0,1.14-.07,1.69-1,14.39-9.87,20.28-11.19,21.12-8.45,5.31-15.65,1.45-15.7,1.41-7.76-5.65-7.7-16.6-7.52-22.2.6-18.66-.17-29.29-1.16-37.14a38.8,38.8,0,0,1,7.77-5.69,58.41,58.41,0,0,0,6,6.16l.35.32a9,9,0,0,1,5.36,3.17,1.56,1.56,0,0,1,.16.2,9.05,9.05,0,0,1,1.85,4.17s0,0,0,0,.05.22.07.33c6.41,5.56,10.57,13.2,13.42,21.2.16.44.3.87.45,1.3.24,0,.59.14.93.23a1.51,1.51,0,0,1,.67.39,0,0,0,0,1,0,0l.09.09A1.58,1.58,0,0,1,390.36,140.72Z" style="fill:#fff;opacity:0.4"></path><path d="M390.35,139.58a14.94,14.94,0,0,1-3.23-.74c-1-.4-1.76-1.06-1.81-1.8C387.53,137.14,389.62,138.22,390.35,139.58Z" style="fill:#fff"></path><path d="M390.07,140.24a15,15,0,0,0-7.33-.26,5.09,5.09,0,0,0,2.82,1,19.5,19.5,0,0,0,3.33-.14C389.18,140.83,390.33,140.32,390.07,140.24Z" style="fill:#fff"></path><path d="M390.18,141.29a14.16,14.16,0,0,0-6.29,1.11A8.61,8.61,0,0,0,390.18,141.29Z" style="fill:#fff"></path><path d="M390.29,141.88a10.32,10.32,0,0,0-4.7,3.83,6.61,6.61,0,0,0,3-1.35A4.34,4.34,0,0,0,390.29,141.88Z" style="fill:#fff"></path><path d="M381.31,154a6.72,6.72,0,0,0,2.66-4.4,7.75,7.75,0,0,1,2.86-4.73,16.36,16.36,0,0,1-4.76,1.9,7.67,7.67,0,0,0-5.39,5.37,9.31,9.31,0,0,1,4.05-4.3c1.38-.67,2.86-.88,4.15-1.41-1.16.89-1.35,2.07-1.79,3.46a12.08,12.08,0,0,1-2.43,4.45Z" style="fill:#fff"></path><path d="M378.21,129.88c.68-1.72,0-4.12-1.34-4.89a12.48,12.48,0,0,0-2.3-4.08,2.81,2.81,0,0,0-3.44-.76c-1.37-.75-3.2-1.82-4.56-1a5.1,5.1,0,0,0-1.92,2.88,7.13,7.13,0,0,0-.27,3.93c.33,1.28,1.32,2.31,2.34,2.11-.5,1.15.1,2.12.84,3a3.93,3.93,0,0,0,2.8,1.36c1,.1,2.11.64,3.13.71a2.65,2.65,0,0,0,3.42.25C378,132.63,377.65,131.3,378.21,129.88Z" style="fill:#fff;opacity:0.6000000000000001"></path><path d="M385.92,138.14c-.45-.41-.73-.51-1.15-.93a15.59,15.59,0,0,0-5.71-3.53,26.77,26.77,0,0,1-3.85-1.29c-1.17-.61-2.45-1.44-2.7-2.74a9.08,9.08,0,0,0,2.6,2c.74.37,1.76,1.07,2.56.88.05-1-1.31-1.89-1.85-2.06a2.23,2.23,0,0,1,2.07,1.27,5.1,5.1,0,0,0,.53,1,2.68,2.68,0,0,0,1.17.75,17.17,17.17,0,0,1,5.81,3.59C385.81,137.51,385.56,137.67,385.92,138.14Z" style="fill:#fff"></path><path d="M384,139.88a5.31,5.31,0,0,1-3.7-.78c-1.37-.71-3.1-1.76-4.64-1.69-1.18.06-1.73.47-3.28.16a5.93,5.93,0,0,1-3-1.95c-.48-1.9-1.46-2.41-2.42-2.56a2.86,2.86,0,0,1,1.66,1.69,1.52,1.52,0,0,1,0,.6c0,.19-.39.23-.83.15a20.32,20.32,0,0,1-4.7-1c-.2-.08-.59-.7-.76-.84-.74-.64-.54-.67-.61-1-.28.33-.07.57.23.89s.9,1,.75,1.4a8.72,8.72,0,0,1-1,.6c-.74.47-1.27,1.74-2.64,2,.63.13,1.09-.26,1.6-.66s.82-.92,1.38-1.23c1.15-.64,2.69-.38,4-.14l2.4.46a4.22,4.22,0,0,1,1.78.86,5.64,5.64,0,0,0,4,1.25,7.27,7.27,0,0,0,1-.18,4.09,4.09,0,0,1,2.81.47c2.33,1.12,3.64,2,5.76,1.84a.57.57,0,0,0,.42-.16C384.3,140,384.14,139.85,384,139.88Z" style="fill:#fff"></path><path d="M382.2,149.9a2,2,0,0,0-1.48,1.72,3.14,3.14,0,0,0-2.1,2.13,8.29,8.29,0,0,0-.27,3.1L376,159.51a9.66,9.66,0,0,1-2.33,2.14,14.75,14.75,0,0,0-6.17,0,1.39,1.39,0,0,0-1-1.74,1.79,1.79,0,0,0-1.9,1,2.54,2.54,0,0,0,0,2.22,4.62,4.62,0,0,0,1.49,1.71,17.62,17.62,0,0,1,1.65,1.18c.47.43.9,1,1.53,1.05.83.07,1.5-.8,2.33-.75.4,0,.77.27,1.17.31a2.33,2.33,0,0,0,1.57-.68,14.81,14.81,0,0,0,3.07-2.89,6.21,6.21,0,0,1,1-1.3,10.51,10.51,0,0,1,1.87-.93,3.78,3.78,0,0,0,2-3c1.34-.7,2-4.59,1.95-6.1Z" style="fill:#fff;opacity:0.6000000000000001"></path><path d="M382,153.14a5.74,5.74,0,0,1-.6,4.25,6.26,6.26,0,0,0,1.26-5.26C382.38,152.53,382.24,152.73,382,153.14Z" style="fill:#fff"></path><path d="M385.84,162.3l-.22-.07" style="fill:none"></path><path d="M379.06,148.49a4,4,0,0,0-3.85,1,5.29,5.29,0,0,1,3.5-.74C378.93,148.53,378.83,148.68,379.06,148.49Z" style="fill:#fff"></path><path d="M383,143.19a4.48,4.48,0,0,1-3.06.88,11.4,11.4,0,0,1-1.74-.72,2.49,2.49,0,0,0-1.89-.24,1.91,1.91,0,0,1,.58-.27c1.41-.25,2.43,1,3.85.89a8.13,8.13,0,0,0,3.14-1.37c.4-.23.84-.1,1.3-.13l-.25.08A4.51,4.51,0,0,0,383,143.19Z" style="fill:#fff"></path><path d="M381.86,143.7c-1.67,1.18-3.54,2.63-5.25,3.73a7.67,7.67,0,0,0-3,3.45,11.32,11.32,0,0,1-.53,3.82,4.94,4.94,0,0,0,.27.42,2,2,0,0,1,.12,1.42,2.8,2.8,0,0,0,.18,2.43,1.17,1.17,0,0,1-.67-1.18,8.84,8.84,0,0,1,.26-1.42,1.39,1.39,0,0,0-.42-1.25,4.09,4.09,0,0,0-2.55,1.08,3,3,0,0,1,2.42-1.51,4.11,4.11,0,0,0,.16-3.23,4.15,4.15,0,0,1-2.55.41,6.29,6.29,0,0,0-2.15,2.56,6.8,6.8,0,0,1,1.32-2.56,3.33,3.33,0,0,0-1.48-.2,7.88,7.88,0,0,1,2.57-.21c.93,0,2.31-.27,2.62-1.14.66-1.8,2.48-2.9,4.1-3.93,1.18-.76,2.27-1.57,3.45-2.32C381.15,143.7,381.59,143.87,381.86,143.7Z" style="fill:#fff"></path><path d="M368,151.67l-.16.06Z" style="fill:#fff"></path><path d="M373.67,138.11a3.14,3.14,0,0,0-1.87,1.12,2.91,2.91,0,0,1-1.89,1.07c-.26,0-.51-.07-.78-.09a1.06,1.06,0,0,0-.77.11,1.19,1.19,0,0,1,.82-.45,7.53,7.53,0,0,0,.95-.16c1-.3,1.5-1.44,2.45-1.83A5,5,0,0,0,373.67,138.11Z" style="fill:#fff"></path><path d="M379.37,140.9a3.05,3.05,0,0,0-2.27-.92,8.81,8.81,0,0,0-2.48.45l-2.89.8a5.41,5.41,0,0,0-1.65.67,1.8,1.8,0,0,0-.83,1.51,3.2,3.2,0,0,0-2.92,1.45,7.88,7.88,0,0,0-.95,2.94,7.21,7.21,0,0,1-1,2.92c-.34.48-1.14.93-1.45,1.43a3.21,3.21,0,0,0-.35,2.18c.2.54.15.2.7,0a10.43,10.43,0,0,1,4.58-3.13c.61-.22,3.9-1.25,4.66-3.26.4-1.06,1.29-2.23,2.42-2.23A6,6,0,0,0,379,144a3.58,3.58,0,0,0,1.08-1.34C380.28,142.07,379.75,141.34,379.37,140.9Z" style="fill:#fff;opacity:0.6000000000000001"></path><path d="M383.25,140.32c-1.54-.57-4.65,1.92-6.25,1.52a5.42,5.42,0,0,1-1.32-.6,1.9,1.9,0,0,0-1.52-.3,2.89,2.89,0,0,1,1,.35,6.43,6.43,0,0,0,1.8.88c-.85.31-1.26,1.05-2.16.94a13.53,13.53,0,0,1-2.21-.71,2.11,2.11,0,0,0-2.17.37c1.89-.76,2.93,1,4.45.66a14,14,0,0,0-3.28,2.65,5.62,5.62,0,0,1-2.81,1.67c-.41.14-.94.31-1,.75a25.28,25.28,0,0,0,2.92-1.19c.84-.55,2.49-2.38,3.34-2.94A38.13,38.13,0,0,1,383.25,140.32Z" style="fill:#fff"></path><path d="M369.5,147.74a1,1,0,0,1,.14,1,5.64,5.64,0,0,1-.46.92,1.48,1.48,0,0,0-.2,1c.2-.29.41-.63.61-.92a3.85,3.85,0,0,0,.44-.76,1.82,1.82,0,0,0,0-1.32A.82.82,0,0,0,369.5,147.74Z" style="fill:#fff"></path><path d="M378.34,139.55a1.67,1.67,0,0,0,.15-2.91,10.65,10.65,0,0,0-2.85-1.3c-1.65-.47-1.35-1.56-3.05-1.85-5.55-.93-4.86-1.41-6.09-2.18-.93-.59-.71-1.53-1.64-2.12s-2.72-.71-3.75-.94-2.23.85-2.95,1.63-.79,2.15-1.09,3.28c-.35,1.3-1.12,2.51-1.13,3.86a3.58,3.58,0,0,0,2.85,3.42,2.18,2.18,0,0,0,1.26,2.59,3.68,3.68,0,0,0,3.07-.23,2.87,2.87,0,0,0,2.23.23,9.58,9.58,0,0,0,3.6-1.82,3,3,0,0,1,.62-.44.85.85,0,0,1,.73,0,16.68,16.68,0,0,0,5.22-1.43,3.2,3.2,0,0,0,2.63.3Z" style="fill:#fff;opacity:0.6000000000000001"></path><path d="M355.6,146.39a11.57,11.57,0,0,1,1.24,3.49c.05.85-.17,1.84.42,2.45a2.06,2.06,0,0,0,2,.3,7.28,7.28,0,0,0,5.16-5.45,2.28,2.28,0,0,0-.13-1.61,2.63,2.63,0,0,0-2.48-.89,3.37,3.37,0,0,1-2.62-.6,4.9,4.9,0,0,1-.79-1.77c-.23-.61-.75-1.23-1.39-1.15-.85.11-1.08,1.34-1.35,2A3.93,3.93,0,0,0,355.6,146.39Z" style="fill:#fff;opacity:0.6000000000000001"></path><path d="M381.85,145.87a2.14,2.14,0,0,0-2.31-1.49,3.15,3.15,0,0,0-1.56.84c-2,1.69-3.51,1.16-4.28,2.48-2.58,4.42-2.27,2.81-3.57,3.38s-.58-.47-3.44,1.14c-1.23.69-2.27,3.38-1.33,4.44.4.46.17,1.56.74,1.37a2.28,2.28,0,0,1,1.76-.15c.58.29.76,1.05,1.23,1.51a3.21,3.21,0,0,0,2.22.66,5.65,5.65,0,0,0,3.55-.65,3.76,3.76,0,0,0,1.38-2.46c.16-.95.89-1,.8-2a6,6,0,0,1,2.07-5.07c.58-.52,1.24-.95,1.79-1.51S382.23,147.63,381.85,145.87Z" style="fill:#fff;opacity:0.6000000000000001"></path><path d="M367.5,108.28a1.47,1.47,0,0,0-.86,1.69,4.33,4.33,0,0,0,1,1.81,1.82,1.82,0,0,0-.29,1.58,2,2,0,0,0,1.23,1.14,2.05,2.05,0,0,0-.11,2,2.22,2.22,0,0,0,1.75,1.15,1,1,0,0,0,.74.9,1.29,1.29,0,0,0,.7.07,4.16,4.16,0,0,1,1.89.07l.36.11c.2.06.42.13.62-.14a.86.86,0,0,0,.16-.47,3,3,0,0,0-.51-1.85,3.31,3.31,0,0,0-.08-2.49,3.39,3.39,0,0,0-1.71-1.86,2.39,2.39,0,0,0-.77-2,6.78,6.78,0,0,0-1.82-1.11l-1.73-.82a.76.76,0,0,0-.42-.08C367.46,108,367.5,108.09,367.5,108.28Z" style="fill:#263238"></path><path d="M390.05,139.17a7.52,7.52,0,0,0,.09,3,1.46,1.46,0,0,0,1.37-.82,1.52,1.52,0,0,0-.18-1.61A1.73,1.73,0,0,0,390.05,139.17Z" style="isolation:isolate;opacity:0.30000000000000004"></path><path d="M379.05,97.31a38.15,38.15,0,1,1-38.11,40.11v-.06c0-.63,0-1.26,0-1.9,0-.28,0-.55,0-.81a38,38,0,0,1,11.94-26.93,38.8,38.8,0,0,1,7.77-5.69c.54-.28,1.08-.57,1.63-.83a37.86,37.86,0,0,1,16.8-3.89m0-1.25a38.87,38.87,0,0,0-17.35,4c-.58.28-1.15.57-1.67.85a40.34,40.34,0,0,0-8,5.87,39.13,39.13,0,0,0-12.33,27.82c0,.27,0,.55,0,.84,0,.59,0,1.21,0,1.93v.09a39.41,39.41,0,1,0,39.36-41.42Z" style="fill:#FF81AE"></path><rect x="222.17" y="221.49" width="51.27" height="1.25" transform="translate(-80.97 273.59) rotate(-50.77)" style="fill:#FF81AE"></rect><path d="M328.66,166.66a42.71,42.71,0,0,1-41,42.72h-.12c-.56,0-1.11,0-1.67,0s-1.12,0-1.67,0h-.29a42.35,42.35,0,0,1-14.69-3.32l-.73-.32a42.79,42.79,0,0,1-5.77-75.05,43.27,43.27,0,0,1,5.77-3.12,42.5,42.5,0,0,1,13.64-3.5c1.23-.12,2.48-.17,3.74-.17a42.73,42.73,0,0,1,42.76,42.76Z" style="fill:#fff"></path><path d="M306.35,209.36h0S306.35,209.4,306.35,209.36Z" style="fill:#ff8b7b"></path><path d="M316.75,152.41s-.15,1.45-.38,3.49c-.38,3.48-1,8.67-1.63,11.26-3.05,13-5.92,28.36-7.38,36.5a42.51,42.51,0,0,1-19.67,5.72h-3.75l1.42-4.19,1.1-3.25.2-.6,1.19-3.5.18-.54.87-2.57.45-1.33.46-1.37.23-.64.18-.55.92-2.72.47-1.39.56-1.66.38-1.11,0-.1.49-1.48.19-.54.34-1,.18-.55,1.91-5.63.63-1.87.41-1.21.66-1.92,1.27-3.78,1-3,.35-.21.06,0,.26-.16.16-.09.32-.2.37-.23Z" style="fill:#ff8b7b"></path><g style="opacity:0.1"><path d="M306.35,209.36h0S306.35,209.4,306.35,209.36Z"></path></g><path d="M268.52,127.57v78.17a42.79,42.79,0,0,1-5.77-75.05A43.27,43.27,0,0,1,268.52,127.57Z" style="fill:#ff8b7b"></path><path d="M268.52,127.57v78.17a42.79,42.79,0,0,1-5.77-75.05A43.27,43.27,0,0,1,268.52,127.57Z" style="fill:#ff8b7b"></path><path d="M284.23,209.39h-.29a42.35,42.35,0,0,1-14.69-3.32l-.73-.32a42.47,42.47,0,0,1-11.84-7.87,56.12,56.12,0,0,1-.79-10.11,132.72,132.72,0,0,1,1.85-18.27,10.42,10.42,0,0,1,.77-3.12c.44-.91,1.23-1.59,2-1.25C263.47,166.41,285.46,203.22,284.23,209.39Z" style="opacity:0.2"></path><path d="M316.75,152.41s-.15,1.45-.38,3.49c-.38,3.48-1,8.67-1.63,11.26-3.05,13-5.92,28.36-7.38,36.5a42.51,42.51,0,0,1-19.67,5.72h-3.75l1.42-4.19,1.1-3.25.2-.6,1.19-3.5.18-.54.87-2.57.45-1.33.46-1.37.23-.64.18-.55.92-2.72.47-1.39.56-1.66.38-1.11,0-.1.49-1.48.19-.54.34-1,.18-.55,1.91-5.63.63-1.87.41-1.21.66-1.92,1.27-3.78,1-3,.35-.21.06,0,.26-.16.16-.09.32-.2.37-.23Z" style="opacity:0.2"></path><path d="M326,151.84a57.62,57.62,0,0,0-9.65,4.06,33.52,33.52,0,0,0-3.4,2.15c-4,2.86-7.25,6.87-8.46,11.6-2.21,8.56,2.59,17.86,0,26.32a18.42,18.42,0,0,1-9.16,10.64A25.44,25.44,0,0,1,284,209.38h-.07c-.85,0-1.69,0-2.53-.06a30.29,30.29,0,0,1-12.16-3.26,25.36,25.36,0,0,1-6.81-5c-4.87-5.13-7.28-12.72-5.48-19.56.94-3.56,2.94-6.78,3.79-10.38.7-3,1.56-26.74,2-40.39a42.41,42.41,0,0,1,19.41-6.62c-.05,1.57-.08,3.1-.07,3.36.11,2.46,1.83,5.31,4,5.83,2.68.64,5.48-.36,7.88-1.7,1.61-.9,3.15-1.94,4.76-2.82h0a21.06,21.06,0,0,1,2.39-1.16c.37-.15.75-.28,1.14-.4A42.89,42.89,0,0,1,326,151.84Z" style="fill:#ff8b7b"></path><circle cx="283.27" cy="187.64" r="5.73" style="isolation:isolate;opacity:0.30000000000000004"></circle><path d="M286.6,196.4a.27.27,0,0,1-.26-.2,7.83,7.83,0,0,0-.86-2.56,1.3,1.3,0,0,1-.58-1.18.27.27,0,0,1,.3-.22.26.26,0,0,1,.23.3c-.05.31.28.6.38.68a7.91,7.91,0,0,1,1.05,2.86.28.28,0,0,1-.2.32Z" style="fill:#fff"></path><path d="M279.2,203.52a.26.26,0,0,1,0-.52.31.31,0,0,0,.17-.21,1.22,1.22,0,0,0,0-.5c-.08-.56-.2-1.45-.31-2.35s-.22-1.78-.31-2.34a.26.26,0,0,1,.22-.3.27.27,0,0,1,.31.22c.08.56.2,1.46.31,2.35s.22,1.78.31,2.34a1.81,1.81,0,0,1,0,.7.79.79,0,0,1-.61.61Z" style="fill:#fff"></path><path d="M267.76,195.52a1,1,0,0,1-.68-.25.27.27,0,0,1,0-.37.27.27,0,0,1,.38,0,.58.58,0,0,0,.57.05,3.88,3.88,0,0,0,1.64-1.73,5.68,5.68,0,0,1,1.19-1.51,3.77,3.77,0,0,1,2.43-.6,2.87,2.87,0,0,0,2.82-1.16l.35-.37a2.14,2.14,0,0,1,1.65-.78.27.27,0,0,1,.25.28.28.28,0,0,1-.29.25,1.66,1.66,0,0,0-1.23.62l-.33.36a4.25,4.25,0,0,1-.9.84,4.31,4.31,0,0,1-2.31.49,3.42,3.42,0,0,0-2.11.48,5.4,5.4,0,0,0-1.07,1.38,4.27,4.27,0,0,1-1.89,1.94A1.29,1.29,0,0,1,267.76,195.52Z" style="fill:#fff"></path><path d="M269.85,192.58a6.63,6.63,0,0,1-2.12-.34.26.26,0,0,1-.17-.33.27.27,0,0,1,.34-.17,6.26,6.26,0,0,0,2.47.29.26.26,0,0,1,.29.24.27.27,0,0,1-.24.29Z" style="fill:#fff"></path><path d="M266.32,183.13a1.27,1.27,0,0,1-.56-.13.25.25,0,0,1-.11-.35.27.27,0,0,1,.35-.12,1,1,0,0,0,1.06-.22,3.48,3.48,0,0,0,.76-1.1.27.27,0,1,1,.47.25,3.82,3.82,0,0,1-.89,1.26A1.69,1.69,0,0,1,266.32,183.13Z" style="fill:#fff"></path><path d="M273,183.17a7.48,7.48,0,0,1-6.11-3,.26.26,0,1,1,.42-.32,7,7,0,0,0,6.44,2.71.28.28,0,0,1,.29.24.27.27,0,0,1-.24.29A7.26,7.26,0,0,1,273,183.17Z" style="fill:#fff"></path><path d="M280.18,186.49l-.11,0a46.61,46.61,0,0,1-8.49-4.71.27.27,0,0,1-.07-.37.26.26,0,0,1,.37-.06,46.51,46.51,0,0,0,8.4,4.65.27.27,0,0,1-.1.51Z" style="fill:#fff"></path><path d="M276.21,175a2.62,2.62,0,0,1-2.22-1.26.29.29,0,0,1,.1-.37.28.28,0,0,1,.37.1,2,2,0,0,0,1.92,1,5.11,5.11,0,0,0-.65-3.75.26.26,0,1,1,.44-.29,5.68,5.68,0,0,1,.69,4.34.26.26,0,0,1-.21.2A2.12,2.12,0,0,1,276.21,175Z" style="fill:#fff"></path><path d="M281.33,183.48a.26.26,0,0,1-.24-.16,16.75,16.75,0,0,0-2.83-5.57,6.39,6.39,0,0,1-1.92-3,.27.27,0,0,1,.21-.31.26.26,0,0,1,.31.21,6.1,6.1,0,0,0,1.75,2.72,16.72,16.72,0,0,1,3,5.76.28.28,0,0,1-.15.35Z" style="fill:#fff"></path><path d="M284.12,182.59a.32.32,0,0,1-.2-.08.28.28,0,0,1,0-.38.77.77,0,0,0,.08-.78,3.38,3.38,0,0,0-.22-.47,4.94,4.94,0,0,1-.26-.57,1.57,1.57,0,0,1,0-1.11,4.07,4.07,0,0,0-.2-3.71.28.28,0,0,1,0-.38.27.27,0,0,1,.37,0,4.56,4.56,0,0,1,.28,4.29,1,1,0,0,0,0,.71,2.38,2.38,0,0,0,.22.49,5.29,5.29,0,0,1,.25.54,1.29,1.29,0,0,1-.21,1.35A.26.26,0,0,1,284.12,182.59Z" style="fill:#fff"></path><path d="M284.15,176.94a.3.3,0,0,1-.16-.05.26.26,0,0,1-.06-.37,7.69,7.69,0,0,0,1.45-4.46.27.27,0,0,1,.27-.27h0a.27.27,0,0,1,.26.27,8.18,8.18,0,0,1-1.55,4.77A.26.26,0,0,1,284.15,176.94Z" style="fill:#fff"></path><path d="M288.08,185.87a.25.25,0,0,1-.22-.12.26.26,0,0,1,.07-.37,3.69,3.69,0,0,0,1.54-2.22c0-.71,1.45-1.78,1.51-1.82a5.4,5.4,0,0,1,1-.57l.36-.18a2.9,2.9,0,0,1,1.42-.3c.44,0,.64,0,1-.57a13,13,0,0,1,.24-1.42,13.55,13.55,0,0,0,.23-1.38.27.27,0,0,1,.53,0,8.67,8.67,0,0,1-.24,1.52,13.55,13.55,0,0,0-.23,1.38.27.27,0,0,1,0,.15,1.39,1.39,0,0,1-1.47.89,2.33,2.33,0,0,0-1.18.25l-.38.18a6.35,6.35,0,0,0-.93.51c-.6.45-1.29,1.16-1.29,1.46a4.21,4.21,0,0,1-1.78,2.6A.24.24,0,0,1,288.08,185.87Z" style="fill:#fff"></path><path d="M297,180.33h0l-2-.27a.27.27,0,0,1-.23-.3.28.28,0,0,1,.3-.23l2,.27a.27.27,0,0,1,.22.3A.26.26,0,0,1,297,180.33Z" style="fill:#fff"></path><path d="M293.49,182.38h0l-2.92,0a.27.27,0,0,1,0-.54h0l2.92,0a.27.27,0,1,1,0,.53Z" style="fill:#fff"></path><path d="M292.12,181.27a.26.26,0,0,1-.25-.2,1.94,1.94,0,0,1,.15-1,2.66,2.66,0,0,0,.14-.7.26.26,0,0,1,.19-.32.26.26,0,0,1,.33.18,2.22,2.22,0,0,1-.15,1,2.26,2.26,0,0,0-.15.7.26.26,0,0,1-.19.32Z" style="fill:#fff"></path><path d="M292.16,192.26a2.5,2.5,0,0,1-1.83-.7,3.3,3.3,0,0,1-1.11-1.07l-.05-.05-.15-.2a2.55,2.55,0,0,0-.46-.51.59.59,0,0,0-.63-.1.26.26,0,0,1-.36-.08.26.26,0,0,1,.08-.37,1.11,1.11,0,0,1,1.23.13,2.69,2.69,0,0,1,.56.61l.19.24c.6.76.82.89.9.91a.31.31,0,0,1,.15.08,2.06,2.06,0,0,0,1.82.55c.47,0,.95-.15,1.4-.24a10.34,10.34,0,0,1,2.38-.29,15.18,15.18,0,0,0,4.09-.54.27.27,0,0,1,.33.19.28.28,0,0,1-.2.33,15.73,15.73,0,0,1-4.23.55A10.35,10.35,0,0,0,294,192a13.71,13.71,0,0,1-1.45.25A2.69,2.69,0,0,1,292.16,192.26Z" style="fill:#fff"></path><path d="M296.2,191.72a.27.27,0,0,1-.23-.14.82.82,0,0,1,0-.72,1.27,1.27,0,0,1,.81-.67,2.84,2.84,0,0,1,1,0l.47,0a2.12,2.12,0,0,0,1.34-.53.28.28,0,0,1,.38,0,.26.26,0,0,1,0,.37,2.65,2.65,0,0,1-1.69.66,4.52,4.52,0,0,1-.52,0,2.52,2.52,0,0,0-.78,0,.73.73,0,0,0-.46.38.27.27,0,0,0,0,.25.27.27,0,0,1-.11.36A.28.28,0,0,1,296.2,191.72Z" style="fill:#fff"></path><path d="M296.57,194.18a2.55,2.55,0,0,1-1.58-.68c-.16-.15-.32-.32-.48-.48a3.74,3.74,0,0,0-1.12-.9.26.26,0,0,1-.15-.34.28.28,0,0,1,.35-.15,4.21,4.21,0,0,1,1.3,1c.15.15.3.31.46.45.49.44,1.2.74,1.69.42a.26.26,0,0,1,.28.44A1.29,1.29,0,0,1,296.57,194.18Z" style="fill:#fff"></path><path d="M295.75,193.81a.28.28,0,0,1-.2-.1.26.26,0,0,1,0-.37l1.42-1.18a.27.27,0,1,1,.34.41l-1.43,1.18A.27.27,0,0,1,295.75,193.81Z" style="fill:#fff"></path><path d="M286.72,202.05l-.12,0a1.08,1.08,0,0,1-.54-.94,2.77,2.77,0,0,1,.13-.83l0-.09a9,9,0,0,0,.07-4.2.27.27,0,0,1,.18-.31.27.27,0,0,1,.32.14,4.59,4.59,0,0,0,3.59,2.5h.26a2.83,2.83,0,0,1,.86.09,1.11,1.11,0,0,1,.85,1,.27.27,0,0,1-.27.26.26.26,0,0,1-.26-.26c0-.23-.25-.42-.47-.49a2.73,2.73,0,0,0-.71-.06h-.28a5,5,0,0,1-3.36-1.76,9.26,9.26,0,0,1-.27,3.23l0,.1a2.7,2.7,0,0,0-.12.67.6.6,0,0,0,.25.49.28.28,0,0,1,.12.36A.27.27,0,0,1,286.72,202.05Z" style="fill:#fff"></path><path d="M290.54,200.25a.27.27,0,0,1-.24-.14,3.49,3.49,0,0,1-.42-1.68.27.27,0,0,1,.54,0,2.85,2.85,0,0,0,.35,1.42.27.27,0,0,1-.11.36Z" style="fill:#fff"></path><path d="M275.16,200.87a.27.27,0,0,1-.12,0,.27.27,0,0,1-.12-.36,1.79,1.79,0,0,1,1.4-.75l.07,0c.32-.06.85-.26.84-.6a1.55,1.55,0,0,1,.64-1.32c.15-.09.32-.16.49-.24a2.35,2.35,0,0,0,.45-.22,3.5,3.5,0,0,0,1.19-2.2,3.35,3.35,0,0,1,1.65-2.42.26.26,0,0,1,.34.14.27.27,0,0,1-.14.35c-.76.3-1.1,1.21-1.33,2.05a4,4,0,0,1-1.43,2.53,3.15,3.15,0,0,1-.52.26c-.15.07-.29.13-.43.21a1.08,1.08,0,0,0-.38.82c0,.68-.65,1-1.26,1.16l-.08,0c-.43.08-.87.17-1,.47A.29.29,0,0,1,275.16,200.87Z" style="fill:#fff"></path><path d="M277.17,202.38a.25.25,0,0,1-.26-.24,5.91,5.91,0,0,0-.5-2,.27.27,0,0,1,0-.37.27.27,0,0,1,.38.05,6.67,6.67,0,0,1,.6,2.32.27.27,0,0,1-.25.29Z" style="fill:#fff"></path><path d="M281.1,201.54a.27.27,0,0,1-.24-.17,2,2,0,0,0-1.63-1.17.27.27,0,1,1,0-.53,2.54,2.54,0,0,1,2.07,1.5.27.27,0,0,1-.14.34A.23.23,0,0,1,281.1,201.54Z" style="fill:#fff"></path><path d="M272.5,194.3a.25.25,0,0,1-.16-.06.26.26,0,0,1,0-.37,7,7,0,0,0,1.29-2.58.27.27,0,1,1,.52.11,7.7,7.7,0,0,1-1.39,2.79A.26.26,0,0,1,272.5,194.3Z" style="fill:#fff"></path><path d="M272,191.73a6.09,6.09,0,0,1-2.79-1.26.27.27,0,0,1-.06-.37.26.26,0,0,1,.37-.06,5.26,5.26,0,0,0,2.55,1.15.27.27,0,1,1,.05.53Z" style="fill:#fff"></path><path d="M276.6,172.14a.27.27,0,0,1,0-.53.88.88,0,0,0,.73-.32,2.6,2.6,0,0,0,.28-2,.27.27,0,0,1,.22-.31.28.28,0,0,1,.31.22,3,3,0,0,1-.4,2.41A1.44,1.44,0,0,1,276.6,172.14Z" style="fill:#fff"></path><path d="M285.16,174.63a.27.27,0,0,1-.26-.2,5.44,5.44,0,0,0-.8-1.46l-.2-.3a.27.27,0,0,1,.44-.3l.2.3a5.38,5.38,0,0,1,.87,1.63.26.26,0,0,1-.19.32Z" style="fill:#fff"></path><g style="opacity:0.5"><path d="M274.69,189.06a3.3,3.3,0,0,0-2.8,0,4.64,4.64,0,0,0-4.9.29,5,5,0,0,1-1.32.87c-1.19.38-1.87-1.46-3-.89a1.4,1.4,0,0,0-.32.22c-.08-.2-.14-.4-.2-.6a9.65,9.65,0,0,1-.54-2.41,3.55,3.55,0,0,1,.34-1.86,4.35,4.35,0,0,0,5.22.67,9.82,9.82,0,0,0,6.84.39,2.12,2.12,0,0,1,1.32,1.26A2,2,0,0,1,274.69,189.06Z" style="fill:#fff"></path><path d="M277.35,180.27a1.39,1.39,0,0,1-.92.63,3.68,3.68,0,0,0-3.59-2,3.18,3.18,0,0,1-1.5,0c-.9-.35-.94-1.55-1.26-2.45-.51-1.45-1.72-2.75-3.06-2.6a2.28,2.28,0,0,1,.09-.63,4,4,0,0,1,.8-1.28,8.41,8.41,0,0,1,1.43-1.77,3,3,0,0,0,1.17,2.13,5.89,5.89,0,0,0,3.06,4.47,9.57,9.57,0,0,0,2.77.85,3.91,3.91,0,0,1,.7.65A1.77,1.77,0,0,1,277.35,180.27Z" style="fill:#fff"></path><path d="M283.85,166.06c-.54,1.75,0,3.54-.23,5.31s-1.9,3.19-2.14,5a4.25,4.25,0,0,0,0,1,2.52,2.52,0,0,1-2.34-1.58,3.81,3.81,0,0,1-.25-.92c.05-.12.11-.23.17-.35a11.75,11.75,0,0,0,1.5-3.24,5.29,5.29,0,0,0-1.19-4,8.1,8.1,0,0,0-1-1.06,1.88,1.88,0,0,1,1.3-1,3,3,0,0,1,2.13.72,2,2,0,0,1,1.43-1.15,2,2,0,0,1,1.24.18A3.16,3.16,0,0,0,283.85,166.06Z" style="fill:#fff"></path><path d="M294.89,172.12a6.3,6.3,0,0,1-.14,1,4,4,0,0,0-2.29,2.64c-.29,1.23,0,2.73-1,3.57-.31.28-.72.44-1,.72a2.12,2.12,0,0,0-.6,1c-1.55.33-3.06-1.07-3.49-2.62,0,0,0-.07,0-.11a3.67,3.67,0,0,0,.83-1.33,11,11,0,0,0,.4-4.25c-.07-1.89-.15-3.79-.21-5.68a7.15,7.15,0,0,0-.15-1.21,1,1,0,0,1,.24-.22c.77-.56,1.87-.08,2.58.55a7.08,7.08,0,0,1,2.32,3.93,2,2,0,0,1,1.79.35A2.07,2.07,0,0,1,294.89,172.12Z" style="fill:#fff"></path><path d="M301.64,186.81a2.7,2.7,0,0,1-.46,1.14,3.58,3.58,0,0,0-4.23-.81,2.07,2.07,0,0,0-1.87-2,3.4,3.4,0,0,0-2.72,1.16,7.23,7.23,0,0,0-.55.69,2.31,2.31,0,0,1-.29-2.51l.08-.15a2.22,2.22,0,0,0,1-.43c.67-.48,1.26-1.17,2.07-1.27,1.26-.15,2.15,1.16,3.29,1.67a2.85,2.85,0,0,0,3.05-.5,2,2,0,0,0,.25-.26v0A8.15,8.15,0,0,1,301.64,186.81Z" style="fill:#fff"></path><path d="M297.24,198a1.2,1.2,0,0,1-1.06.77,1.58,1.58,0,0,1-1.84,1.45,2.48,2.48,0,0,1-.89-.31c0-.17,0-.33-.06-.48.34.54,1.29,0,1.29-.62a2.24,2.24,0,0,0-1.05-1.54c-1.38-1.14-3.23-2.48-5.08-2.61l.16,0c-.24,0,.69-1.39.83-1.48a1.79,1.79,0,0,1,.46-.23,3,3,0,0,0,.58.86,11.14,11.14,0,0,0,5.73,2.33,5.45,5.45,0,0,0,.7,0,3.35,3.35,0,0,1,.23.55A2.11,2.11,0,0,1,297.24,198Z" style="fill:#fff"></path><path d="M284.38,202.2a8,8,0,0,0,.15,1.54,1.26,1.26,0,0,1-.29.32,1.12,1.12,0,0,1-1.46,0c-.41-.39-.34-1-.38-1.62h0a11,11,0,0,0,.32-1.49c.23-1.52.24-3.24-.75-4.42a4.12,4.12,0,0,0-.28-.31,2.58,2.58,0,0,1,.49-.74,2.45,2.45,0,0,1,3.25.38s0,0,0,0C284,197.5,284.35,200.22,284.38,202.2Z" style="fill:#fff"></path><path d="M278,194.67a.78.78,0,0,1-.06.43,8.27,8.27,0,0,0-4.49,4,3,3,0,0,0-.43,1.32,2,2,0,0,1-1.05,0,2.35,2.35,0,0,1-1.75-1.68,1.35,1.35,0,0,1-1.36-1.23,7,7,0,0,0,1.2-.37c2.34-.95,5.71-2.36,6.32-4.63a2.31,2.31,0,0,1,1.09,1A2.47,2.47,0,0,1,278,194.67Z" style="fill:#fff"></path></g><path d="M280.54,171.28a11.75,11.75,0,0,1-1.5,3.24c-.06.12-.12.23-.17.35a3.72,3.72,0,0,0-.28,3.09c-.74-.08-1.51-.16-2.25-.3a9.57,9.57,0,0,1-2.77-.85,5.89,5.89,0,0,1-3.06-4.47,3,3,0,0,1-1.17-2.13,2.71,2.71,0,0,1,.26-1.43,3.33,3.33,0,0,1,3.61-1.57,2,2,0,0,1,2.63-2.66,8.9,8.9,0,0,1,2.53,1.63,8.1,8.1,0,0,1,1,1.06A5.29,5.29,0,0,1,280.54,171.28Z" style="fill:#fff;opacity:0.4"></path><path d="M277.44,182.72a3.48,3.48,0,0,1-1,1.6,6.2,6.2,0,0,1-2.41,1.46,9.82,9.82,0,0,1-6.84-.39,4.35,4.35,0,0,1-5.22-.67,3.79,3.79,0,0,1-.8-1.18,4.29,4.29,0,0,1,2.88-5.61,2.31,2.31,0,0,1,2.26-3.82,2,2,0,0,1,.72-.22c1.34-.15,2.55,1.15,3.06,2.6.32.9.36,2.1,1.26,2.45a3.18,3.18,0,0,0,1.5,0,3.68,3.68,0,0,1,3.59,2c.06.13.11.25.16.38C277.1,181.67,277.59,182.1,277.44,182.72Z" style="fill:#fff;opacity:0.4"></path><path d="M276.45,191.64a2.8,2.8,0,0,1-.09,1c-.61,2.27-4,3.68-6.32,4.63a7,7,0,0,1-1.2.37A7.37,7.37,0,0,1,264,197a4.17,4.17,0,0,1-2-1.9,2.29,2.29,0,0,1,.41-2.58,2,2,0,0,1-.06-2.9,1.4,1.4,0,0,1,.32-.22c1.12-.57,1.8,1.27,3,.89a5,5,0,0,0,1.32-.87,4.64,4.64,0,0,1,4.9-.29,3.3,3.3,0,0,1,2.8,0l.19.1A3.19,3.19,0,0,1,276.45,191.64Z" style="fill:#fff;opacity:0.4"></path><path d="M282.72,201a11,11,0,0,1-.32,1.49h0a5,5,0,0,1-.63,1.36,2.92,2.92,0,0,1-2.54,1.37,1.88,1.88,0,0,1-1.71-2.06,2.43,2.43,0,0,1-3.6-1.49,1.11,1.11,0,0,1-.91-1.07.57.57,0,0,1,0-.13,3,3,0,0,1,.43-1.32,8.27,8.27,0,0,1,4.49-4,3.64,3.64,0,0,1,3.77,1.16,4.12,4.12,0,0,1,.28.31C283,197.75,283,199.47,282.72,201Z" style="fill:#fff;opacity:0.4"></path><path d="M294.68,198.84c0,.64-.95,1.16-1.29.62,0,.15,0,.31.06.48.12,1.36,0,2.89-1.19,3.48a3.54,3.54,0,0,1-2,.17,4.09,4.09,0,0,0-2,.08,1.35,1.35,0,0,0-.87,1.61,1.69,1.69,0,0,1-2.39-.45,2.89,2.89,0,0,1-.48-1.09,8,8,0,0,1-.15-1.54c0-2-.34-4.7,1.06-6.27a2.26,2.26,0,0,1,.35-.34,3.73,3.73,0,0,1,2.76-.9c1.85.13,3.7,1.47,5.08,2.61A2.24,2.24,0,0,1,294.68,198.84Z" style="fill:#fff;opacity:0.4"></path><path d="M301.25,193.76a5.85,5.85,0,0,1-4.24,2.36,5.45,5.45,0,0,1-.7,0,11.14,11.14,0,0,1-5.73-2.33,3,3,0,0,1-.58-.86c-.51-1.23.08-2.64.77-4.08a14.53,14.53,0,0,1,1-1.9,7.23,7.23,0,0,1,.55-.69,3.4,3.4,0,0,1,2.72-1.16,2.07,2.07,0,0,1,1.87,2,3.58,3.58,0,0,1,4.23.81,3,3,0,0,1,.49.64A4.86,4.86,0,0,1,301.25,193.76Z" style="fill:#fff;opacity:0.4"></path><path d="M301.22,183.51a2,2,0,0,1-.25.26,2.85,2.85,0,0,1-3.05.5c-1.14-.51-2-1.82-3.29-1.67-.81.1-1.4.79-2.07,1.27a2.22,2.22,0,0,1-1,.43c-1.46.22-2.21-1.8-1.76-3.27a2.12,2.12,0,0,1,.6-1c.32-.28.73-.44,1-.72.93-.84.69-2.34,1-3.57a4,4,0,0,1,2.29-2.64,3.55,3.55,0,0,1,1.5-.32,4,4,0,0,1,3.74,3,20.41,20.41,0,0,0,.39,2.62c.31.85,1,1.51,1.32,2.36A2.89,2.89,0,0,1,301.22,183.51Z" style="fill:#fff;opacity:0.4"></path><path d="M287.16,177a3.67,3.67,0,0,1-.83,1.33c-1.64,1.67-4.56,1.5-4.86-.93h0a4.25,4.25,0,0,1,0-1c.24-1.81,1.84-3.14,2.14-5s-.31-3.56.23-5.31a3.16,3.16,0,0,1,.62-1.08,1.58,1.58,0,0,1,1.62-.58,1.82,1.82,0,0,1,1.11,1.43,7.15,7.15,0,0,1,.15,1.21c.06,1.89.14,3.79.21,5.68A11,11,0,0,1,287.16,177Z" style="fill:#fff;opacity:0.4"></path><path d="M289.91,168.72l-.22,4.65c0,.38,0,.87.4,1a.91.91,0,0,0,.71-.23l3.88-2.74A3,3,0,0,0,296,170a2,2,0,0,0-.67-2,5.55,5.55,0,0,0-2-1,5.66,5.66,0,0,0-2.17-.45,2.12,2.12,0,0,0-1.85,1,1.33,1.33,0,0,0,.69,1.83Z" style="fill:#fff;opacity:0.4"></path><path d="M296.32,171.8c.35-.47,1.09-.16,1.57.19s1.21.68,1.56.21a.78.78,0,0,0-.15-1,2.14,2.14,0,0,0-.94-.47.79.79,0,0,0-.53-1.12,1.3,1.3,0,0,0-1.25.58,3.84,3.84,0,0,0-.5,1.36Z" style="fill:#fff;opacity:0.4"></path><path d="M296.83,172.62a3.58,3.58,0,0,1-2.74,2.87c-1.38.29-2.74-1-3.5-2.21a1.32,1.32,0,0,1-1.67-.83,3.7,3.7,0,0,1,0-2.06c.09-.51.13-1.21.23-1.72a2.53,2.53,0,0,1,2.14-3.85c-.05,0-.37.47-.42.46-.48-.17-.47-.93-.08-1.25a1.84,1.84,0,0,1,1.46-.23,3.46,3.46,0,0,0,1.5,0c.49-.15,2.24-1.14,2-1.59a7.54,7.54,0,0,0,1.89,2.74,3.39,3.39,0,0,1,1.19,1.19,1.16,1.16,0,0,1-.36,1.5,2.87,2.87,0,0,1,.84,3.75C298.69,172.68,298.07,173.26,296.83,172.62Z" style="fill:#263238"></path><circle cx="283.27" cy="187.64" r="2.05" style="fill:#fff;opacity:0.2"></circle><path d="M298.78,128.71l0,0a34.31,34.31,0,0,1-16.48,6.49c-.91,0-.48-5.11-.19-7.78.12,2.45,1.83,5.3,4,5.82,2.67.64,5.47-.36,7.87-1.7C295.59,130.65,297.15,129.61,298.78,128.71Z" style="opacity:0.2"></path><path d="M300.71,163.05a.22.22,0,0,1-.13,0,4.75,4.75,0,0,1-2.24-4.06c0-.94,0-1.9-.1-2.84a19.08,19.08,0,0,1,.1-4.89,13,13,0,0,1,5.46-7.82,38.38,38.38,0,0,1,8.63-4.23.26.26,0,0,1,.19.49,38.39,38.39,0,0,0-8.51,4.17,12.48,12.48,0,0,0-5.25,7.49,19,19,0,0,0-.09,4.76c.06.94.12,1.92.1,2.89a4.2,4.2,0,0,0,2,3.58.27.27,0,0,1-.14.5Z" style="fill:#263238"></path><path d="M300.89,146.77a.25.25,0,0,1-.2-.09c-2.64-3.11-9-4.55-13.14-3.91L286,143c-4,.68-8.22,1.38-11.74-.61a17,17,0,0,1-4-3.6c-.62-.68-1.26-1.39-1.94-2a.27.27,0,0,1,0-.38.26.26,0,0,1,.37,0c.7.64,1.35,1.35,2,2a16.7,16.7,0,0,0,3.92,3.5c3.35,1.89,7.44,1.21,11.39.55l1.55-.26c4.32-.68,10.83.81,13.62,4.09a.26.26,0,0,1-.2.44Z" style="fill:#263238"></path><path d="M265.1,172.14a.27.27,0,0,1-.26-.19,10.75,10.75,0,0,1,.24-6.3l.1-.35c1.18-4.37,2.65-9.8,6.4-13.36.55-.52,1.21-1.06,1.9-1.62,2.32-1.9,4.95-4,5.3-6.93a.27.27,0,0,1,.29-.23.28.28,0,0,1,.24.3c-.38,3.09-3.21,5.41-5.49,7.27-.69.56-1.34,1.09-1.87,1.59-3.64,3.47-5.09,8.82-6.26,13.11l-.1.36a10.4,10.4,0,0,0-.24,6,.27.27,0,0,1-.18.33Z" style="fill:#263238"></path><path d="M266.82,168.91h0a2.17,2.17,0,0,1-2.05-2.36.28.28,0,0,1,.3-.23.26.26,0,0,1,.23.3,1.64,1.64,0,0,0,1.52,1.76.25.25,0,0,1,.26.27A.26.26,0,0,1,266.82,168.91Z" style="fill:#263238"></path><path d="M269.61,165.53a5.3,5.3,0,0,1-3.84-2,.27.27,0,0,1,.05-.37.27.27,0,0,1,.38.06c.81,1.12,2.82,2.11,4.08,1.67a4.73,4.73,0,0,0,2.16-2.25l.25-.4a6.11,6.11,0,0,1,2.66-2.54,3,3,0,0,1,3.59.72.26.26,0,1,1-.42.32,2.57,2.57,0,0,0-3-.56,5.64,5.64,0,0,0-2.42,2.35l-.25.39a5.12,5.12,0,0,1-2.43,2.47A2.61,2.61,0,0,1,269.61,165.53Z" style="fill:#263238"></path><path d="M277.28,162.74h0a.27.27,0,0,1-.22-.31c.09-.48-.29-.86-1-1.56-.23-.22-.48-.46-.74-.74a.27.27,0,0,1,.39-.36c.25.27.5.5.72.72.73.7,1.3,1.25,1.17,2A.27.27,0,0,1,277.28,162.74Z" style="fill:#263238"></path><path d="M276.6,148.17a.27.27,0,0,1-.26-.27.26.26,0,0,1,.26-.26,25.47,25.47,0,0,0,10.25-2.73c2.49-1.4,5.75-2.9,8.85-2.07a.27.27,0,0,1,.19.33.26.26,0,0,1-.33.18c-2.9-.77-5.89.59-8.45,2a26.17,26.17,0,0,1-10.5,2.79Z" style="fill:#263238"></path><path d="M300.89,146.77l-.11,0c-1.66-.74-4.39-.87-7-1-2.47-.11-4.81-.23-6-.86a.28.28,0,0,1-.12-.36.27.27,0,0,1,.36-.11c1.1.58,3.37.69,5.78.8,2.69.13,5.46.26,7.22,1a.27.27,0,0,1,.13.35A.26.26,0,0,1,300.89,146.77Z" style="fill:#263238"></path><path d="M295.49,163.59h-.1a.28.28,0,0,1-.15-.35c1.59-4.13,3.32-4.58,3.4-4.6a.27.27,0,0,1,.32.2.28.28,0,0,1-.2.32s-1.56.45-3,4.27A.26.26,0,0,1,295.49,163.59Z" style="fill:#263238"></path><path d="M280.8,147.61a.25.25,0,0,1-.22-.12.26.26,0,0,1,.07-.37,3.56,3.56,0,0,0,.65-.77,4.3,4.3,0,0,1,.8-.91.27.27,0,0,1,.37.07.27.27,0,0,1-.07.37,3.39,3.39,0,0,0-.66.78,3.74,3.74,0,0,1-.79.9A.3.3,0,0,1,280.8,147.61Z" style="fill:#263238"></path><path d="M270.75,162.25a4.71,4.71,0,0,1-.83-.06c-1.59-.34-3-2.26-3.07-2.34a.26.26,0,0,1,0-.37.27.27,0,0,1,.37.06,6.22,6.22,0,0,0,2.77,2.13c.89.19,3.13-.11,3.49-.56a.26.26,0,0,1,.37-.05.28.28,0,0,1,0,.38C273.51,162,271.88,162.25,270.75,162.25Z" style="fill:#263238"></path><path d="M267.56,140.34a.27.27,0,0,1-.26-.22.28.28,0,0,1,.22-.31l.39-.06a6,6,0,0,0,2.77-.87.27.27,0,0,1,.32.43,6.68,6.68,0,0,1-3,1l-.38.06Z" style="fill:#263238"></path><path d="M291.78,142.76h-.06c-3.25-.81-7.88-1.56-11.47-.49a8.12,8.12,0,0,1-4,0,9.59,9.59,0,0,0-2.4-.23.26.26,0,0,1-.28-.25.27.27,0,0,1,.24-.28,10.32,10.32,0,0,1,2.53.23,7.52,7.52,0,0,0,3.8,0c3.7-1.1,8.43-.35,11.75.48a.26.26,0,0,1,.19.32A.28.28,0,0,1,291.78,142.76Z" style="fill:#263238"></path><path d="M295.63,143.36a.26.26,0,0,1-.25-.18.28.28,0,0,1,.18-.34,44.19,44.19,0,0,1,6.42-1,47.81,47.81,0,0,0,6.35-1,.26.26,0,0,1,.14.51,47.78,47.78,0,0,1-6.43,1,43.71,43.71,0,0,0-6.33,1Z" style="fill:#263238"></path><path d="M263,172.62h0a.26.26,0,0,1-.21-.31,14.15,14.15,0,0,1,1.85-4.32.26.26,0,0,1,.37-.06.27.27,0,0,1,.07.37,13.51,13.51,0,0,0-1.77,4.11A.27.27,0,0,1,263,172.62Z" style="fill:#263238"></path><path d="M267.35,170.77a.27.27,0,0,1-.19-.08,1.92,1.92,0,0,1-.6-2.11.29.29,0,0,1,.07-.12,4.05,4.05,0,0,1,3.2-1.11.27.27,0,1,1-.06.53,3.63,3.63,0,0,0-2.71.9,1.39,1.39,0,0,0,.49,1.55.26.26,0,0,1,0,.37A.24.24,0,0,1,267.35,170.77Z" style="fill:#263238"></path><path d="M285.49,148a11,11,0,0,1-3.73-.66.27.27,0,1,1,.18-.5,10.3,10.3,0,0,0,4.67.56.27.27,0,0,1,.29.24.26.26,0,0,1-.23.29A11.67,11.67,0,0,1,285.49,148Z" style="fill:#263238"></path><path d="M289.32,187.08a1.7,1.7,0,0,1-.54-.09l-.18-.05v-.63h.53v.23c.86.13,1.69-.7,1.94-1l.4-.47a4.73,4.73,0,0,1,1.67-1.47,4.8,4.8,0,0,1,3.49.29l.67.25a9.08,9.08,0,0,0,2.11.63c1.31.12,2.25-1.29,2.6-1.9a10.87,10.87,0,0,0,.22-10.06c-.22-.43-.48-.86-.76-1.31a8.65,8.65,0,0,1-1.45-3.27,5,5,0,0,1,.3-2.19,5.67,5.67,0,0,0,.31-1.65,20,20,0,0,0-1-4.81c-1.21-4.24-2.71-9.5,1.07-13.28l.38.37c-3.56,3.56-2.17,8.45-.94,12.76a20.45,20.45,0,0,1,1,5,6.39,6.39,0,0,1-.34,1.81,4.31,4.31,0,0,0-.28,2,8.15,8.15,0,0,0,1.37,3.06c.27.44.56.9.78,1.35a11.39,11.39,0,0,1-.23,10.56c-.4.7-1.49,2.31-3.11,2.17a9.7,9.7,0,0,1-2.25-.67l-.66-.24a4.34,4.34,0,0,0-3.1-.3,4.16,4.16,0,0,0-1.47,1.32l-.42.48A3.16,3.16,0,0,1,289.32,187.08Z" style="fill:#263238"></path><path d="M300.47,160.91a2.52,2.52,0,0,0-.07,2.57,3.85,3.85,0,0,0,.51.56,1.85,1.85,0,0,0,.43-1.56A2.19,2.19,0,0,0,300.47,160.91Z" style="fill:#263238"></path><path d="M298.3,152.23a2.52,2.52,0,0,0-.07,2.57,3.85,3.85,0,0,0,.51.56,1.83,1.83,0,0,0,.42-1.57A2.14,2.14,0,0,0,298.3,152.23Z" style="fill:#263238"></path><path d="M298.61,157.17a1.33,1.33,0,0,0-.59,1.7,3.46,3.46,0,0,0,.36.52c.52-.13.62-.51.73-.92A1.44,1.44,0,0,0,298.61,157.17Z" style="fill:#263238"></path><path d="M299.61,148.12a1.32,1.32,0,0,0-1.08,1.44,3.76,3.76,0,0,0,.19.6c.53,0,.75-.29,1-.65A1.48,1.48,0,0,0,299.61,148.12Z" style="fill:#263238"></path><path d="M309.82,140.49a1.32,1.32,0,0,0-1.79.18,3.61,3.61,0,0,0-.32.55,1,1,0,0,0,1.15.27A1.46,1.46,0,0,0,309.82,140.49Z" style="fill:#263238"></path><path d="M303.77,143.73a1.33,1.33,0,0,0-1.61.8,3.19,3.19,0,0,0-.1.63c.46.27.8.07,1.17-.15A1.46,1.46,0,0,0,303.77,143.73Z" style="fill:#263238"></path><path d="M299.25,144.94a1.33,1.33,0,0,0-1.39-1.15,3.43,3.43,0,0,0-.61.16c-.06.54.26.77.6,1A1.48,1.48,0,0,0,299.25,144.94Z" style="fill:#263238"></path><path d="M300.36,142.42a1.32,1.32,0,0,0-1.77-.32,4.67,4.67,0,0,0-.46.44c.22.5.6.54,1,.58A1.44,1.44,0,0,0,300.36,142.42Z" style="fill:#263238"></path><path d="M304.89,141.92a1.32,1.32,0,0,0-1.77-.32,3.17,3.17,0,0,0-.46.44c.21.49.6.53,1,.58A1.5,1.5,0,0,0,304.89,141.92Z" style="fill:#263238"></path><path d="M288.77,144.81a1.32,1.32,0,0,0-1.77-.32,3.78,3.78,0,0,0-.46.44c.21.49.6.53,1,.58A1.5,1.5,0,0,0,288.77,144.81Z" style="fill:#263238"></path><path d="M275.37,148.93a1.33,1.33,0,0,0-1.58.87,4,4,0,0,0-.08.63,1,1,0,0,0,1.16-.19A1.49,1.49,0,0,0,275.37,148.93Z" style="fill:#263238"></path><path d="M270.47,153.69a1.32,1.32,0,0,0-1.39,1.14,4.68,4.68,0,0,0,0,.64c.52.15.8-.11,1.11-.41A1.46,1.46,0,0,0,270.47,153.69Z" style="fill:#263238"></path><path d="M265.17,166.86a1.33,1.33,0,0,0-.82,1.6,5.1,5.1,0,0,0,.29.57c.54-.07.69-.42.86-.82A1.49,1.49,0,0,0,265.17,166.86Z" style="fill:#263238"></path><path d="M278.68,144.84a1.32,1.32,0,0,0-1.23,1.32,2.94,2.94,0,0,0,.12.62c.52.09.77-.21,1-.54A1.5,1.5,0,0,0,278.68,144.84Z" style="fill:#263238"></path><path d="M267.83,158a1.33,1.33,0,0,0-1,1.49,3.07,3.07,0,0,0,.21.6c.53,0,.73-.33,1-.7A1.5,1.5,0,0,0,267.83,158Z" style="fill:#263238"></path><path d="M266.28,162.63a1.33,1.33,0,0,0-1,1.49,3.07,3.07,0,0,0,.21.6c.53,0,.73-.33.95-.7A1.5,1.5,0,0,0,266.28,162.63Z" style="fill:#263238"></path><path d="M271.46,164.69a1.34,1.34,0,0,0-1.8.15,2.94,2.94,0,0,0-.32.55c.33.42.72.36,1.14.29A1.51,1.51,0,0,0,271.46,164.69Z" style="fill:#263238"></path><path d="M274.8,160.49a1.33,1.33,0,0,0-1.64.75,4,4,0,0,0-.12.62,1,1,0,0,0,1.17-.11A1.48,1.48,0,0,0,274.8,160.49Z" style="fill:#263238"></path><path d="M279,160.81a1.32,1.32,0,0,0-1.08-1.44,3.34,3.34,0,0,0-.63,0c-.18.5.07.8.35,1.12A1.49,1.49,0,0,0,279,160.81Z" style="fill:#263238"></path><path d="M284.58,143.08a1.33,1.33,0,0,0-1.8-.1,4,4,0,0,0-.4.49c.27.46.66.46,1.09.45A1.47,1.47,0,0,0,284.58,143.08Z" style="fill:#263238"></path><path d="M294,142.83a1.32,1.32,0,0,0-1.61-.8,3.83,3.83,0,0,0-.57.29c.07.54.43.69.82.85A1.49,1.49,0,0,0,294,142.83Z" style="fill:#263238"></path><path d="M287.63,141.78A1.31,1.31,0,0,0,286,141a3.83,3.83,0,0,0-.57.29c.07.54.43.69.83.85A1.47,1.47,0,0,0,287.63,141.78Z" style="fill:#263238"></path><path d="M281.28,141.89a1.34,1.34,0,0,0-1.8-.11,3.37,3.37,0,0,0-.4.5c.27.46.66.46,1.08.45A1.5,1.5,0,0,0,281.28,141.89Z" style="fill:#263238"></path><path d="M275.18,142.7a1.32,1.32,0,0,0-1.25-1.3,2.9,2.9,0,0,0-.63.09c-.11.52.18.78.49,1.07A1.5,1.5,0,0,0,275.18,142.7Z" style="fill:#263238"></path><path d="M271.68,140a1.32,1.32,0,0,0-.91-1.55,3.2,3.2,0,0,0-.63-.07,1,1,0,0,0,.22,1.16A1.46,1.46,0,0,0,271.68,140Z" style="fill:#263238"></path><path d="M294.91,145.51a1.33,1.33,0,0,0-1.72-.54,4.21,4.21,0,0,0-.51.38c.15.52.53.61.95.71A1.5,1.5,0,0,0,294.91,145.51Z" style="fill:#263238"></path><path d="M285.9,123.9a42.76,42.76,0,0,1,1.79,85.48h-.12c-.56,0-1.11,0-1.67,0s-1.12,0-1.67,0h-.29a42.35,42.35,0,0,1-14.69-3.32l-.73-.32a42.79,42.79,0,0,1-5.77-75.05,43.27,43.27,0,0,1,5.77-3.12,42.5,42.5,0,0,1,13.64-3.5c1.23-.12,2.48-.17,3.74-.17m0-1.25c-1.33,0-2.62.06-3.86.17a44,44,0,0,0-14,84.06c.22.11.48.22.75.33a43.69,43.69,0,0,0,15.12,3.42h.33c.48,0,1,0,1.69,0s1.2,0,1.73,0l.15,0A43.75,43.75,0,0,0,308,204.74a44.19,44.19,0,0,0,21.92-38.08,43.67,43.67,0,0,0-2.72-15.26,43.93,43.93,0,0,0-41.29-28.75Z" style="fill:#FF81AE"></path><circle cx="231.6" cy="241.98" r="2.63" style="fill:#FF81AE"></circle></g><g id="freepik--Desk--inject-43"><polygon points="203.69 278.21 203.69 411.56 200.43 411.56 197.53 284.31 193.69 284.31 193.69 278.21 203.69 278.21" style="fill:#FF81AE"></polygon><polygon points="200.79 411.55 197.69 411.55 193.69 278.22 197.79 278.22 200.79 411.55" style="fill:#FF81AE"></polygon><polygon points="203.69 278.21 203.69 411.56 200.43 411.56 197.53 284.31 193.69 284.31 193.69 278.21 203.69 278.21" style="fill:#fff;opacity:0.30000000000000004"></polygon><polygon points="399.26 411.55 396.15 411.55 392.15 278.22 396.26 278.22 399.26 411.55" style="fill:#FF81AE"></polygon><polygon points="399.26 411.55 396.15 411.55 392.15 278.22 396.26 278.22 399.26 411.55" style="fill:#fff;opacity:0.30000000000000004"></polygon><polygon points="349.15 278.22 349.15 411.55 352.44 411.55 356.31 284.31 395.99 284.31 398.89 411.55 402.15 411.55 402.15 278.22 349.15 278.22" style="fill:#FF81AE"></polygon><polygon points="349.15 278.22 349.15 411.55 352.44 411.55 356.31 284.31 395.99 284.31 398.89 411.55 402.15 411.55 402.15 278.22 349.15 278.22" style="fill:#fff;opacity:0.5"></polygon><polygon points="349.15 411.55 346.04 411.55 345.04 278.22 349.15 278.22 349.15 411.55" style="fill:#FF81AE"></polygon><polygon points="349.15 411.55 346.04 411.55 345.04 278.22 349.15 278.22 349.15 411.55" style="fill:#fff;opacity:0.30000000000000004"></polygon><polygon points="193.48 278.21 193.48 284.31 157.64 284.31 153.77 411.56 150.48 411.56 150.48 278.21 193.48 278.21" style="fill:#FF81AE"></polygon><polygon points="193.48 278.21 193.48 284.31 157.64 284.31 153.77 411.56 150.48 411.56 150.48 278.21 193.48 278.21" style="fill:#fff;opacity:0.30000000000000004"></polygon><polygon points="193.48 278.21 193.48 284.31 157.64 284.31 153.77 411.56 150.48 411.56 150.48 278.21 193.48 278.21" style="fill:none;opacity:0.30000000000000004"></polygon><polygon points="150.48 411.55 147.38 411.55 146.38 278.22 150.48 278.22 150.48 411.55" style="fill:#FF81AE"></polygon><rect x="140.94" y="270.55" width="205.65" height="7.67" style="fill:#FF81AE"></rect><rect x="140.94" y="270.55" width="205.65" height="7.67" style="fill:#fff;opacity:0.5"></rect><rect x="341.81" y="270.55" width="65.78" height="7.67" style="fill:#FF81AE"></rect><rect x="341.81" y="270.55" width="65.78" height="7.67" style="fill:#fff;opacity:0.30000000000000004"></rect><path d="M258.56,269.35a.75.75,0,0,1,0,.15,1.08,1.08,0,0,1-1.09,1.07l-27.74-.34a1.08,1.08,0,0,1-1.06-1,.32.32,0,0,1,0-.14,1.07,1.07,0,0,1,.73-1h0a1,1,0,0,1,.34-.05l27.75.33a1.07,1.07,0,0,1,.94.58A1.15,1.15,0,0,1,258.56,269.35Z" style="fill:#263238"></path><path d="M256.47,270.57l49.31-.34a1.08,1.08,0,0,0,1.07-1.09h0a1.08,1.08,0,0,0-1.09-1.07l-49.3.34a1.08,1.08,0,0,0-1.08,1.09h0A1.08,1.08,0,0,0,256.47,270.57Z" style="fill:#263238"></path><path d="M256.47,270.57l49.31-.34a1.08,1.08,0,0,0,1.07-1.09h0a1.08,1.08,0,0,0-1.09-1.07l-49.3.34a1.08,1.08,0,0,0-1.08,1.09h0A1.08,1.08,0,0,0,256.47,270.57Z" style="opacity:0.5"></path><path d="M309.39,237.36l-2.22,27.24a3.85,3.85,0,0,1-2.84,3.35,3.18,3.18,0,0,1-.76.13h-.13l-45.41.31H258a3.11,3.11,0,0,1-3.11-3.43l2.22-27.24a3.84,3.84,0,0,1,3.73-3.47h.69l44.72-.32A3.12,3.12,0,0,1,309.39,237.36Z" style="fill:#263238"></path><path d="M307.8,233.8l-45.41.32a3.36,3.36,0,0,0-.89.13,3.84,3.84,0,0,0-2.84,3.34l-2.22,27.25a3.12,3.12,0,0,0,3.17,3.43l44.72-.32H305a3.84,3.84,0,0,0,3.73-3.47L311,237.23A3.12,3.12,0,0,0,307.8,233.8Z" style="fill:#263238"></path><path d="M307.8,233.8l-45.41.32a3.36,3.36,0,0,0-.89.13,3.84,3.84,0,0,0-2.84,3.34l-2.22,27.25a3.12,3.12,0,0,0,3.17,3.43l44.72-.32H305a3.84,3.84,0,0,0,3.73-3.47L311,237.23A3.12,3.12,0,0,0,307.8,233.8Z" style="fill:#fff;opacity:0.2"></path></g><g id="freepik--Character--inject-43"><path d="M112.06,230.86c-.68-.08-20.58,1.87-21.88,23.21l3.41,14.76h0a68.89,68.89,0,0,1,49.72.68l.24.09-1.38-16.87S137.1,233.79,112.06,230.86Z" style="fill:#FF81AE"></path><path d="M153.84,333.83l-4,.34a687,687,0,0,0-8.59-75.7,31.14,31.14,0,0,0-13.21-20,20.84,20.84,0,0,0-4.69-2.53,25.8,25.8,0,0,0-9.66-2.09h0l0,0h0a29.68,29.68,0,0,0-4,.28,21,21,0,0,0-8.44,3.28,41.48,41.48,0,0,0-3.41,2.92,18,18,0,0,0-1.57,1.9,22.08,22.08,0,0,0-3.41,17.49A627.38,627.38,0,0,1,101.67,329l-4,.27a623.2,623.2,0,0,0-8.77-68.75A26.08,26.08,0,0,1,93,239.81a24.19,24.19,0,0,1,17.93-10.1c15.61-1.06,31.85,11.64,34.25,27.92A693.75,693.75,0,0,1,153.84,333.83Z" style="fill:#263238"></path><path d="M153.84,333.83l-4,.34a687,687,0,0,0-8.59-75.7,31.14,31.14,0,0,0-13.21-20,20.84,20.84,0,0,0-4.69-2.53,25.8,25.8,0,0,0-9.66-2.09v0h0a29.68,29.68,0,0,0-4,.28,21,21,0,0,0-8.44,3.28,41.48,41.48,0,0,0-3.41,2.92,18,18,0,0,0-1.57,1.9,22.08,22.08,0,0,0-3.41,17.49A627.38,627.38,0,0,1,101.67,329l-4,.27a623.2,623.2,0,0,0-8.77-68.75A26.08,26.08,0,0,1,93,239.81a24.19,24.19,0,0,1,17.93-10.1c15.61-1.06,31.85,11.64,34.25,27.92A693.75,693.75,0,0,1,153.84,333.83Z" style="fill:#fff;opacity:0.30000000000000004"></path><path d="M104.93,321.65h77.25a7.33,7.33,0,0,1,7.33,7.33v2.44a0,0,0,0,1,0,0H97.59a0,0,0,0,1,0,0V329A7.33,7.33,0,0,1,104.93,321.65Z" style="fill:#FF81AE"></path><polygon points="100.71 411.71 95.82 411.71 99.82 331.42 106.03 331.42 100.71 411.71" style="fill:#263238"></polygon><polygon points="100.71 411.71 95.82 411.71 99.82 331.42 106.03 331.42 100.71 411.71" style="fill:#fff;opacity:0.30000000000000004"></polygon><polygon points="138.14 411.71 133.26 411.71 135.92 331.42 142.14 331.42 138.14 411.71" style="fill:#263238"></polygon><polygon points="138.14 411.71 133.26 411.71 135.92 331.42 142.14 331.42 138.14 411.71" style="fill:#fff;opacity:0.30000000000000004"></polygon><polygon points="155.06 411.71 150.17 411.71 146.17 331.42 152.39 331.42 155.06 411.71" style="fill:#263238"></polygon><polygon points="155.06 411.71 150.17 411.71 146.17 331.42 152.39 331.42 155.06 411.71" style="fill:#fff;opacity:0.30000000000000004"></polygon><polygon points="196.09 411.71 191.21 411.71 185.88 331.42 192.1 331.42 196.09 411.71" style="fill:#263238"></polygon><polygon points="196.09 411.71 191.21 411.71 185.88 331.42 192.1 331.42 196.09 411.71" style="fill:#fff;opacity:0.30000000000000004"></polygon><rect x="138.9" y="327.87" width="54.62" height="7.1" style="fill:#FF81AE"></rect><rect x="138.9" y="327.87" width="54.62" height="7.1" style="fill:#fff;opacity:0.7000000000000001"></rect><rect x="93.59" y="327.87" width="45.31" height="7.1" style="fill:#FF81AE"></rect><rect x="93.59" y="327.87" width="45.31" height="7.1" style="fill:#fff;opacity:0.4"></rect><g id="freepik--Character--inject-2--inject-43"><polygon points="240.84 406.29 249.63 405.31 252.17 384.42 240.28 385.87 240.84 406.29" style="fill:#ff8b7b"></polygon><path d="M250.34,402.51l-10.29-.83a.66.66,0,0,0-.76.53v.06l-1.16,8.1a1.64,1.64,0,0,0,1.48,1.76c3.58.22,5.09.15,9.63.19,2.8,0,9.47,0,13.3-.41s3.28-4.22,1.62-4.38c-4-.34-9.9-2.07-12.32-4.31A2.51,2.51,0,0,0,250.34,402.51Z" style="fill:#263238"></path><polygon points="240.28 385.88 252.17 384.42 250.87 395.11 240.54 395.04 240.28 385.88" style="isolation:isolate;opacity:0.2"></polygon><path d="M183.86,284.84s69.73,1.37,72.53,27.57a492.26,492.26,0,0,1-3.74,73.28l-13,1.64s-6.95-45.6-4.39-67.6c-19-3.42-71.77,2.25-78.9-12.57-5.84-12.09-4.1-19.25-4.1-19.25Z" style="fill:#263238"></path><path d="M183.86,284.84s69.73,1.37,72.53,27.57a492.26,492.26,0,0,1-3.74,73.28l-13,1.64s-6.95-45.6-4.39-67.6c-19-3.42-71.77,2.25-78.9-12.57-5.84-12.09-4.1-19.25-4.1-19.25Z" style="fill:#fff;opacity:0.6000000000000001"></path><path d="M255.22,404a1.21,1.21,0,0,0,.36-1.14.81.81,0,0,0-.46-.64c-1.09-.55-3.81,1-4.12,1.21a.22.22,0,0,0-.1.13.21.21,0,0,0,.14.26,11,11,0,0,0,2.42.53A2.54,2.54,0,0,0,255.22,404Zm-.26-1.41a.39.39,0,0,1,.19.34.76.76,0,0,1-.21.74c-.46.39-1.67.35-3.28-.11C252.77,403,254.35,402.34,255,402.61Z" style="fill:#FF81AE"></path><path d="M251.23,403.81c1-.48,2.48-2.27,2.35-3.3a.82.82,0,0,0-.72-.69,1.11,1.11,0,0,0-1,.24c-1,.82-1,3.47-1,3.58a.21.21,0,0,0,.11.18l.09,0Zm1.48-3.58c.31.06.37.21.39.34.09.67-.93,2-1.79,2.65.05-.87.24-2.37.83-2.86a.62.62,0,0,1,.48-.15S252.7,400.25,252.71,400.23Z" style="fill:#FF81AE"></path><path d="M237,367c2.82-11.78,6.89-50,4.92-57-2.52-9-36.06-14.13-36.06-14.13s12.77,5.58,21.78,23A75.79,75.79,0,0,1,234.9,341a106,106,0,0,1,1.47,19.7Z" style="isolation:isolate;opacity:0.30000000000000004"></path><polygon points="219.67 404.25 228.58 404.52 231.34 383.65 218.69 383.12 219.67 404.25" style="fill:#ff8b7b"></polygon><path d="M228.9,401.88l-10.31-.05a.66.66,0,0,0-.69.62l-.55,8.16a1.63,1.63,0,0,0,1.61,1.64c3.59-.09,5.31-.24,9.85-.26,2.79,0,8.28.28,12.1-.32s3.12-4.33,1.46-4.43c-4-.21-9.3-2.8-11.89-4.85A2.55,2.55,0,0,0,228.9,401.88Z" style="fill:#263238"></path><path d="M233.88,403a1.15,1.15,0,0,0,.27-1.16.84.84,0,0,0-.5-.61c-1.11-.47-3.72,1.33-4,1.53a.2.2,0,0,0-.09.13.2.2,0,0,0,.16.25,11.21,11.21,0,0,0,2.44.34A2.43,2.43,0,0,0,233.88,403Zm-.38-1.36a.39.39,0,0,1,.24.3.77.77,0,0,1-.16.76c-.39.43-1.64.47-3.28.14C231.37,402.17,232.9,401.41,233.5,401.65Z" style="fill:#FF81AE"></path><path d="M229.92,403.16c.91-.55,2.29-2.5,2.08-3.46a.8.8,0,0,0-.77-.65,1.07,1.07,0,0,0-.95.3c-.94.89-.74,3.53-.73,3.64a.18.18,0,0,0,.11.17h.09A.33.33,0,0,0,229.92,403.16Zm1.21-3.73c.31,0,.4.19.4.32.15.65-.78,2.1-1.58,2.77,0-.85.06-2.36.62-2.89a.62.62,0,0,1,.46-.19Z" style="fill:#FF81AE"></path><polygon points="217.54 382.75 232.09 381.35 229.75 395.6 219.27 395.7 217.54 382.75" style="isolation:isolate;opacity:0.2"></polygon><path d="M170.14,286s68.26,9.87,67.79,29.87c2,24.17-5.5,74.64-5.5,74.64l-15.54.18s-5.27-37.71-4.45-67.31c-17,1.66-65.05,1.14-67.42-2.4-10.07-10.4-1.46-32.34-1.46-32.34Z" style="fill:#263238"></path><g style="opacity:0.6000000000000001"><path d="M170.14,286s68.26,9.87,67.79,29.87c2,24.17-5.5,74.64-5.5,74.64l-15.54.18s-5.27-37.71-4.45-67.31c-17,1.66-65.05,1.14-67.42-2.4-10.07-10.4-1.46-32.34-1.46-32.34Z" style="fill:#fff"></path></g><polygon points="215.55 392.07 233.02 391.92 234.69 383.63 214.61 383.77 215.55 392.07" style="fill:#263238"></polygon><polygon points="215.55 392.07 233.02 391.92 234.69 383.63 214.61 383.77 215.55 392.07" style="fill:#fff;opacity:0.7000000000000001"></polygon><path d="M178,224.78c.28,1.59.55,3,.88,4.42s.66,2.83,1,4.29c.74,2.82,1.6,5.63,2.57,8.49a68.76,68.76,0,0,0,8,16.75,31.36,31.36,0,0,0,3.39,4.08,20,20,0,0,0,4.74,3.58,21.61,21.61,0,0,0,10.92,2.5c3.33-.12,27.12-6.77,27.87-7.28l3.7-5.09s-13.06.19-14.34.32c-2.31.27-14.44,1.2-16.74.86a11.39,11.39,0,0,1-5.12-2,10.88,10.88,0,0,1-1.77-1.69,23.73,23.73,0,0,1-1.78-2.55,44.25,44.25,0,0,1-3.16-6.54c-1-2.34-1.81-4.81-2.59-7.33s-1.48-5.08-2.18-7.67l-1-3.89c-.3-1.28-.63-2.65-.87-3.77Z" style="fill:#ff8b7b"></path><path d="M186.4,231.49c-1.65-1.22-5.37,5.34-7.27,13.16,1,2.79,2.14,5.47,3.26,8l12.54-3.89C193.17,241.27,190.11,234.23,186.4,231.49Z" style="isolation:isolate;opacity:0.2"></path><path d="M244.4,257l7,2.58-7,3.21s-7.88,0-8.85-2.53l1.5-1.68a6.6,6.6,0,0,1,1.95-1.43A6.86,6.86,0,0,1,244.4,257Z" style="fill:#ff8b7b"></path><path d="M253,262.93l-3.27,2.67a1.06,1.06,0,0,1-1.18.1l-5.08-2.91,7.89-3.19,1.74,1.8A1,1,0,0,1,253,262.93Z" style="fill:#ff8b7b"></path><path d="M193.26,218.93a59.69,59.69,0,0,1-4.64,24.5c1.82,3.5,1.81,7.46,2.92,11.24s2.45,7.61,4.9,10.71,6.2,5.41,10.14,5.2a23.93,23.93,0,0,1-.38-7.78,9.18,9.18,0,0,1,3.92-7,29.49,29.49,0,0,1-5.44-5s-4.35-18.58-7.43-27.72C196.6,221.14,195.3,219.16,193.26,218.93Z" style="fill:#FF81AE"></path><path d="M193.26,218.93a59.69,59.69,0,0,1-4.64,24.5c1.82,3.5,1.81,7.46,2.92,11.24s2.45,7.61,4.9,10.71,6.2,5.41,10.14,5.2a23.93,23.93,0,0,1-.38-7.78,9.18,9.18,0,0,1,3.92-7,29.49,29.49,0,0,1-5.44-5s-4.35-18.58-7.43-27.72C196.6,221.14,195.3,219.16,193.26,218.93Z" style="fill:#fff;opacity:0.8"></path><path d="M178.43,212.31,168,210.43l-13.16.66a9.13,9.13,0,0,0-8.46,7.15c-1.75,7.88-3,19.09-3.73,28.77-.87,10.87-.26,27,.95,41.6l44-3.67c1.84-38.2,5.18-49.95,5.91-60.06a9.09,9.09,0,0,0-6-9.23Z" style="fill:#263238"></path><path d="M159.4,210.79a23,23,0,0,1,29,3.74C178.93,212.93,169.05,211.2,159.4,210.79Z" style="fill:#FF81AE"></path><path d="M159.4,210.79a23,23,0,0,1,29,3.74C178.93,212.93,169.05,211.2,159.4,210.79Z" style="fill:#fff;opacity:0.7000000000000001"></path><path d="M150.73,214.79c8.8-1.21,7.62,18.62,3.11,33-1.31,4.16-6.22,2.22-7.86,1.06C140.61,245,139.65,220.72,150.73,214.79Z" style="isolation:isolate;opacity:0.30000000000000004"></path><path d="M183.71,210.89c6.33,8.5,7.77,34.67,2,74.16,0,0,21.46-.21,26.09,5.4a67.68,67.68,0,0,1,11.59-.77c-5.79-5.88-21.4-8.29-29.65-8.51,3-24.74,5.73-38.92,3-57.63C196,218.27,189.45,214,183.71,210.89Z" style="fill:#FF81AE"></path><g style="opacity:0.8"><path d="M183.71,210.89c6.33,8.5,7.77,34.67,2,74.16,0,0,21.46-.21,26.09,5.4a67.68,67.68,0,0,1,11.59-.77c-5.79-5.88-21.4-8.29-29.65-8.51,3-24.74,5.73-38.92,3-57.63C196,218.27,189.45,214,183.71,210.89Z" style="fill:#fff"></path></g><path d="M147.23,309.91a47.52,47.52,0,0,1,4.25-4.73c4-4.27,8.32-9.7,9.9-15.34,4-14.27,6.05-29.24,7.23-44a75.85,75.85,0,0,0-6.45-36.26l-13.35,1.19c-2,.17-3.61,2-4.64,3.71,3.93,16.06,3.15,33.37-1.29,49.3-2.28,8.2-5.64,16.07-8,24.26s-3.71,16.9-1.85,25.21c.81,3.65,3.81,7.32,6.62,9.79,2,1.77,5.51,1.14,8.19,1.16a7.81,7.81,0,0,1-3.26-8.72A33.7,33.7,0,0,1,147.23,309.91Z" style="fill:#FF81AE"></path><path d="M147.23,309.91a47.52,47.52,0,0,1,4.25-4.73c4-4.27,8.32-9.7,9.9-15.34,4-14.27,6.05-29.24,7.23-44a75.85,75.85,0,0,0-6.45-36.26l-13.35,1.19c-2,.17-3.61,2-4.64,3.71,3.93,16.06,3.15,33.37-1.29,49.3-2.28,8.2-5.64,16.07-8,24.26s-3.71,16.9-1.85,25.21c.81,3.65,3.81,7.32,6.62,9.79,2,1.77,5.51,1.14,8.19,1.16a7.81,7.81,0,0,1-3.26-8.72A33.7,33.7,0,0,1,147.23,309.91Z" style="fill:#fff;opacity:0.8"></path><path d="M213,256.66a3.77,3.77,0,0,0-4-2.57,6.41,6.41,0,0,0-4.3,2.65,10.34,10.34,0,0,0-1.39,10.1,7.6,7.6,0,0,0,4.63,4.51,5,5,0,0,0,5.77-2.17c-2.34-2.89-2.55-7.84-.69-11.07A5.86,5.86,0,0,0,213,256.66Z" style="fill:#FF81AE"></path><path d="M213,256.66a3.77,3.77,0,0,0-4-2.57,6.41,6.41,0,0,0-4.3,2.65,10.34,10.34,0,0,0-1.39,10.1,7.6,7.6,0,0,0,4.63,4.51,5,5,0,0,0,5.77-2.17c-2.34-2.89-2.55-7.84-.69-11.07A5.86,5.86,0,0,0,213,256.66Z" style="fill:#fff;opacity:0.6000000000000001"></path><path d="M209.35,193H215a0,0,0,0,1,0,0v18.7a1.87,1.87,0,0,1-1.87,1.87h-1.95a1.87,1.87,0,0,1-1.87-1.87V193A0,0,0,0,1,209.35,193Z" transform="translate(493.27 288.95) rotate(153.18)" style="fill:#263238"></path><path d="M209.35,193H215a0,0,0,0,1,0,0v18.7a1.87,1.87,0,0,1-1.87,1.87h-1.95a1.87,1.87,0,0,1-1.87-1.87V193A0,0,0,0,1,209.35,193Z" transform="translate(493.27 288.95) rotate(153.18)" style="fill:#fff;opacity:0.30000000000000004"></path><rect x="211.96" y="215.54" width="5.28" height="54.88" transform="translate(429.2 485.96) rotate(180)" style="fill:#FF81AE"></rect><rect x="226.15" y="215.54" width="5.28" height="5.81" transform="translate(457.58 436.89) rotate(180)" style="fill:#FF81AE"></rect><rect x="211.96" y="215.54" width="5.28" height="54.88" transform="translate(429.2 485.96) rotate(180)" style="opacity:0.2"></rect><rect x="226.15" y="215.54" width="5.28" height="5.81" transform="translate(457.58 436.89) rotate(180)" style="opacity:0.2"></rect><rect x="224.3" y="207.04" width="4.22" height="8.5" transform="translate(452.81 422.58) rotate(180)" style="fill:#FF81AE"></rect><rect x="224.3" y="207.04" width="4.22" height="8.5" transform="translate(452.81 422.58) rotate(180)" style="opacity:0.1"></rect><path d="M205.37,215.54H224.3V207l-16.8,3.6a2.71,2.71,0,0,0-2.13,2.64Z" style="fill:#FF81AE"></path><path d="M205.37,215.54H224.3V207l-16.8,3.6a2.71,2.71,0,0,0-2.13,2.64Z" style="fill:#fff;opacity:0.2"></path><path d="M225.31,224.73l6-2.82a.29.29,0,0,0-.12-.56H217.39a.29.29,0,0,0-.12.56l6,2.82A2.4,2.4,0,0,0,225.31,224.73Z" style="fill:#263238"></path><rect x="220.3" y="224.94" width="7.98" height="5.4" rx="2.14" transform="translate(-3.34 451.93) rotate(-90)" style="fill:#263238"></rect><rect x="220.3" y="224.94" width="7.98" height="5.4" rx="2.14" transform="translate(-3.34 451.93) rotate(-90)" style="fill:#fff;opacity:0.6000000000000001"></rect><rect x="225.97" y="223.79" width="7.98" height="5.4" rx="2.14" transform="translate(108.72 525.62) rotate(-112.5)" style="fill:#263238"></rect><rect x="214.63" y="223.79" width="7.98" height="5.4" rx="2.14" transform="translate(-74.29 341.8) rotate(-67.5)" style="fill:#263238"></rect><g style="opacity:0.30000000000000004"><rect x="225.97" y="223.79" width="7.98" height="5.4" rx="2.14" transform="translate(108.72 525.62) rotate(-112.5)" style="fill:#fff"></rect><rect x="214.63" y="223.79" width="7.98" height="5.4" rx="2.14" transform="translate(-74.29 341.8) rotate(-67.5)" style="fill:#fff"></rect></g><path d="M212,270.42H196.88a2.44,2.44,0,0,1-2.38-3l7.58-49.93a2.54,2.54,0,0,1,2.47-2h21.6v5.81H212Z" style="fill:#FF81AE"></path><path d="M212,270.42H196.88a2.44,2.44,0,0,1-2.38-3l7.58-49.93a2.54,2.54,0,0,1,2.47-2h21.6v5.81H212Z" style="fill:#fff;opacity:0.30000000000000004"></path><rect x="221.43" y="245.5" width="21.44" height="4.17" transform="translate(464.29 495.17) rotate(180)" style="fill:#263238"></rect><rect x="199.99" y="245.5" width="21.44" height="4.17" transform="translate(421.42 495.17) rotate(180)" style="fill:#263238"></rect><rect x="221.43" y="245.5" width="21.44" height="4.17" transform="translate(464.29 495.17) rotate(180)" style="fill:#fff;opacity:0.7000000000000001"></rect><rect x="199.99" y="245.5" width="21.44" height="4.17" transform="translate(421.42 495.17) rotate(180)" style="fill:#fff;opacity:0.30000000000000004"></rect><path d="M200.39,259.8c0,3.57,2.3,6.45,5.14,6.45s5.14-2.88,5.14-6.45-2.3-6.45-5.14-6.45S200.39,256.24,200.39,259.8Z" style="fill:#263238"></path><path d="M199,259.8c0,3.57,2.31,6.45,5.15,6.45s5.14-2.88,5.14-6.45-2.3-6.45-5.14-6.45S199,256.24,199,259.8Z" style="fill:#FF81AE"></path><path d="M199,259.8c0,3.57,2.31,6.45,5.15,6.45s5.14-2.88,5.14-6.45-2.3-6.45-5.14-6.45S199,256.24,199,259.8Z" style="fill:#fff;opacity:0.7000000000000001"></path><rect x="211.97" y="265.54" width="35.25" height="4.88" style="fill:#FF81AE"></rect><rect x="211.97" y="265.54" width="35.25" height="4.88" style="fill:#fff;opacity:0.30000000000000004"></rect><rect x="229.59" y="265.54" width="17.63" height="4.88" style="fill:#FF81AE"></rect></g><path d="M156.72,244.85c3,8,1.87,13.17,7.12,14.44s28.29.71,28.29.71c4.11-.32,3,4.87,2.37,7.25-7.76,1.36-14,1.62-21.68,3.15-5.64,1.12-14.82,2.64-20.2.64-4.87-1.82-8.73-15.65-11.35-25.66C144.05,242.21,156.72,244.85,156.72,244.85Z" style="fill:#ff8b7b"></path><path d="M195.61,257.75l3.58-3.21L203.72,265s-9,3.27-10.51,1.45l-2.06-2.9C189.13,261,193.6,259.41,195.61,257.75Z" style="fill:#ff8b7b"></path><polygon points="206.79 254.39 208.31 260.74 203.71 264.96 199.19 254.54 206.79 254.39" style="fill:#ff8b7b"></polygon><polygon points="238.05 391.77 252.79 391.83 254.64 384.59 237.81 384.21 238.05 391.77" style="fill:#263238"></polygon><polygon points="238.05 391.77 252.79 391.83 254.64 384.59 237.81 384.21 238.05 391.77" style="fill:#fff;opacity:0.7000000000000001"></polygon><path d="M143.28,262.28s-.19,12.65,3.1,15.94c5.62,5.61,19.89-2.63,19.89-2.63S153.15,277,143.28,262.28Z" style="isolation:isolate;opacity:0.2"></path><path d="M148.88,211.35c-22.06,8.16-6.71,51.72-.43,62.81a29.88,29.88,0,0,0,24.28-.81c-1.58-5-2.06-11.31-.33-16.28-3.28-.59-7.68-1.12-11-1.71,0,0-2.1-14.62-2.52-24.88C158.59,222.35,156.35,212.41,148.88,211.35Z" style="fill:#FF81AE"></path><path d="M148.88,211.35c-22.06,8.16-6.71,51.72-.43,62.81a29.88,29.88,0,0,0,24.28-.81c-1.58-5-2.06-11.31-.33-16.28-3.28-.59-7.68-1.12-11-1.71,0,0-2.1-14.62-2.52-24.88C158.59,222.35,156.35,212.41,148.88,211.35Z" style="fill:#fff;opacity:0.8"></path><path d="M170.24,256.56a22.34,22.34,0,0,0-2.26,9.17,11,11,0,0,0,3.7,8.43,6.19,6.19,0,0,1,4-1.13c.87.06,1.36,0,2.23.05a77.41,77.41,0,0,1,0-14.68,10.85,10.85,0,0,0-4.47.14C173.68,257.17,171.61,256.3,170.24,256.56Z" style="fill:#FF81AE"></path><path d="M170.24,256.56a22.34,22.34,0,0,0-2.26,9.17,11,11,0,0,0,3.7,8.43,6.19,6.19,0,0,1,4-1.13c.87.06,1.36,0,2.23.05a77.41,77.41,0,0,1,0-14.68,10.85,10.85,0,0,0-4.47.14C173.68,257.17,171.61,256.3,170.24,256.56Z" style="fill:#fff;opacity:0.6000000000000001"></path><path d="M171,208c3.06-5.1,4.57-13.05,5.16-18.12l9.14,14.72a14.67,14.67,0,0,0-2.33,6.4c-.06.74.07,1.11.48,1.39a15,15,0,0,1,2,1.52l.35.34a3.3,3.3,0,0,1,.57,3.76h0a2.67,2.67,0,0,1-1.84,1.34l-2.82.54a2.69,2.69,0,0,1-1.29-.07l-3.19-1a31.45,31.45,0,0,1-10.34-5.43s-3-3.55,1.28-3.68A3.47,3.47,0,0,0,171,208Z" style="fill:#ff8b7b"></path><path d="M179.62,196.79l5.29,8.42a16.36,16.36,0,0,0-1.58,3.69c-2.66-1.32-5.48-4.8-5.6-8.2C177.62,198.6,178.83,196.78,179.62,196.79Z" style="isolation:isolate;opacity:0.2"></path><path d="M178.81,179.71c-2.69,9-4.71,14.1-1.92,20.23,4.18,9.23,16.51,9.17,21.8,1.19,4.8-7.24,8.36-20.68,1-27.33a12.79,12.79,0,0,0-20.92,5.91Z" style="fill:#ff8b7b"></path><path d="M181.42,167.78a8.3,8.3,0,0,0-3.57,4.27,1.86,1.86,0,0,0-.09,1.33c.17.42,6.09,2.65,8.44,3.56a3.33,3.33,0,0,1,2.1-2.34,3.72,3.72,0,0,1,3.23.38c3.29,2.2,4.58,5.47,8.62,5.28a3.94,3.94,0,0,1-1.45-1.09,4,4,0,0,1-1.07-2.34c.32.93,2.19,1.5,3.13,1.95a6,6,0,0,1,3.26,4.51c1.31-1.43,2.63-2.4,3.45-4.12a7.16,7.16,0,0,0-.29-5.88,8,8,0,0,0-3.54-3.25C190.19,163,183.09,166.79,181.42,167.78Z" style="fill:#263238"></path><path d="M192.42,187.89c-.26.72-.1,1.44.37,1.61s1.06-.27,1.32-1,.1-1.43-.37-1.6S192.68,187.18,192.42,187.89Z" style="fill:#263238"></path><path d="M191.45,199.09c-.26.72-.1,1.44.37,1.61s1.06-.27,1.32-1,.1-1.43-.37-1.6S191.71,198.38,191.45,199.09Z" style="fill:#263238"></path><path d="M202,192.27a.21.21,0,0,1-.15-.05,4.54,4.54,0,0,0-2.08-1,.23.23,0,0,1-.21-.18.24.24,0,0,1,.09-.26,5.75,5.75,0,0,1,2.8-1.16.24.24,0,0,1,.28.22.25.25,0,0,1-.21.28,5.13,5.13,0,0,0-2.11.74,5.55,5.55,0,0,1,1.74,1,.25.25,0,0,1,.05.35A.27.27,0,0,1,202,192.27Z" style="fill:#263238"></path><path d="M192.15,183a.65.65,0,0,1-.15-.18.48.48,0,0,1,.31-.55,4.52,4.52,0,0,1,4,.73.45.45,0,0,1,0,.64.45.45,0,0,1-.63,0h0a3.55,3.55,0,0,0-3.18-.54A.48.48,0,0,1,192.15,183Z" style="fill:#263238"></path><path d="M204.46,188.1a.44.44,0,0,1-.38-.19,3.55,3.55,0,0,0-2.77-1.62.45.45,0,1,1,0-.89,4.44,4.44,0,0,1,3.56,2,.43.43,0,0,1-.1.6h0A.4.4,0,0,1,204.46,188.1Z" style="fill:#263238"></path><path d="M179.26,188c-.49-4.7,4.16-4.57,4.16-4.57,1.05-.71,2.09-4,2.8-5.06,1.42-2.13.55-3-.34-3.49a10.16,10.16,0,0,0-2.9-.94c-1.28-.28-4-1-5.28-1.31-6.28,2-7.41,17.94-1.93,22.07C175.47,189.78,179.59,191.12,179.26,188Z" style="fill:#263238"></path><path d="M171.52,186.33a8.94,8.94,0,0,0,3.85,5.6c2.64,1.67,4.86-.45,4.89-3.42,0-2.65-1.32-6.74-4.33-7.23S170.94,183.49,171.52,186.33Z" style="fill:#ff8b7b"></path><path d="M197.53,189.63a27.48,27.48,0,0,0,1.19,7.36c-1.73.7-3.66-.61-3.66-.61Z" style="fill:#ff5652"></path><path d="M182.94,211.55s3,7.46-3.89,6.33c-5.27-.85-10.94-8.45-10.94-8.45l-2.36.26s-1.59,13.36,6.68,18.22c0,0,4.36-6.56,7.74-6.48,4.46.11,6.21,5.69,6.21,5.69s3.39-5.78-1-14Z" style="fill:#263238"></path><g style="opacity:0.2"><path d="M182.94,211.55s3,7.46-3.89,6.33c-5.27-.85-10.94-8.45-10.94-8.45l-2.36.26s-1.59,13.36,6.68,18.22c0,0,4.36-6.56,7.74-6.48,4.46.11,6.21,5.69,6.21,5.69s3.39-5.78-1-14Z" style="fill:#fff"></path></g><path d="M161.24,229.23a4.93,4.93,0,0,1,2.78-.84,4.65,4.65,0,0,1,2.82.66v-.76l-.74-1.15a3.57,3.57,0,0,0-2.14-.49,3.73,3.73,0,0,0-2.1.63l-.63,1.07Z" style="fill:#ff5652"></path><g style="clip-path:url(#freepik--clip-path--inject-43)"><path d="M161.24,229.23a4.93,4.93,0,0,1,2.78-.84,4.65,4.65,0,0,1,2.82.66v-.76l-.74-1.15a3.57,3.57,0,0,0-2.14-.49,3.73,3.73,0,0,0-2.1.63l-.63,1.07Z" style="opacity:0.30000000000000004"></path><path d="M162.12,227.12a1.94,1.94,0,0,0-.26.16l-.62,1.06a3.74,3.74,0,0,0,.2.76,4,4,0,0,1,.69-.34A2.15,2.15,0,0,1,162.12,227.12Z" style="opacity:0.1"></path><path d="M165.8,228.59a4.88,4.88,0,0,1,.72.27,3.57,3.57,0,0,0,.14-.85l-.56-.87a2.13,2.13,0,0,0-.47-.24s0,0,0,0a1.49,1.49,0,0,1,.25.92A2.68,2.68,0,0,1,165.8,228.59Z" style="opacity:0.1"></path></g><path d="M166.1,227.14s1.24,1.42-1.06,4.42c-2.51,3.28-4.44,5.4-6,5.6l1.7,2s2.31-.49,5.66-5.91C168.73,229.42,166.1,227.14,166.1,227.14Z" style="fill:#ff5652"></path><g style="clip-path:url(#freepik--clip-path-2--inject-43)"><path d="M164.17,236.34l.1-.13c-.47-.5-1-1.1-1.53-1.81l-.15.17.13.2a5.4,5.4,0,0,0,1.3,1.44A1,1,0,0,1,164.17,236.34Z" style="opacity:0.30000000000000004"></path></g><path d="M161.86,227.28s-1.15,1.49,1.34,4.34c2.72,3.11,4.78,5.1,6.4,5.19L168,238.94s-2.34-.34-6-5.53C159.38,229.72,161.86,227.28,161.86,227.28Z" style="fill:#ff5652"></path></g></svg>